<?xml version="1.0" encoding="utf-8"?>
<!-- Generator: Adobe Illustrator 25.2.0, SVG Export Plug-In . SVG Version: 6.00 Build 0)  -->
<svg version="1.1" id="Calque_1" xmlns="http://www.w3.org/2000/svg" xmlns:xlink="http://www.w3.org/1999/xlink" x="0px" y="0px"
	 viewBox="0 0 150 40" style="enable-background:new 0 0 150 40;" xml:space="preserve">
<style type="text/css">
	.st0{fill:#FFFFFF;}
</style>
<g>
	<path class="st0" d="M0,29.9V12.3h13.1v3H3.6v3.9h8.9v3H3.6V27h9.9v3H0z"/>
	<path class="st0" d="M16,25.2v-3.4h6.6v3.4H16z"/>
	<path class="st0" d="M24.7,29.9V12.4h3.6V27h8.9v3H24.7z"/>
	<path class="st0" d="M39.7,29.9V12.3h13.1v3h-9.5v3.9h8.9v3h-8.9V27h9.9v3H39.7z"/>
	<path class="st0" d="M72,29.9h-3.9l-1.5-4h-7l-1.5,4h-3.8l6.9-17.6H65L72,29.9z M65.5,23L63,16.4L60.6,23H65.5z"/>
	<path class="st0" d="M73.9,29.9V12.3h7.5c1.9,0,3.3,0.2,4.1,0.5c0.9,0.3,1.5,0.9,2.1,1.7c0.5,0.8,0.8,1.7,0.8,2.8
		c0,1.3-0.4,2.4-1.2,3.3c-0.8,0.9-1.9,1.4-3.5,1.6c0.8,0.4,1.4,0.9,1.9,1.5c0.5,0.5,1.2,1.5,2,2.9l2.2,3.4h-4.3l-2.6-3.8
		c-0.9-1.4-1.5-2.2-1.9-2.6c-0.3-0.4-0.7-0.6-1.1-0.7c-0.4-0.1-1-0.2-1.8-0.2h-0.7v7.4H73.9z M77.5,19.8h2.6c1.7,0,2.8-0.1,3.2-0.2
		c0.4-0.1,0.8-0.4,1-0.7c0.2-0.4,0.4-0.8,0.4-1.3c0-0.6-0.2-1.1-0.5-1.4c-0.3-0.4-0.8-0.6-1.3-0.7c-0.3,0-1.2-0.1-2.6-0.1h-2.8V19.8
		z"/>
	<path class="st0" d="M91.7,29.9V12.3h3.5l7.2,11.8V12.3h3.3v17.6h-3.6L95,18.4v11.5H91.7z"/>
	<path class="st0" d="M109.4,29.9V12.3h3.6v17.6H109.4z"/>
	<path class="st0" d="M116.4,29.9V12.3h3.5l7.2,11.8V12.3h3.3v17.6h-3.6l-7.1-11.5v11.5H116.4z"/>
	<path class="st0" d="M142.3,23.4v-3h7.7v7c-0.7,0.7-1.8,1.4-3.2,1.9c-1.4,0.5-2.8,0.8-4.3,0.8c-1.8,0-3.5-0.4-4.8-1.2
		c-1.4-0.8-2.4-1.9-3.1-3.3c-0.7-1.4-1-3-1-4.7c0-1.8,0.4-3.5,1.2-4.9c0.8-1.4,1.9-2.5,3.4-3.3c1.1-0.6,2.5-0.9,4.2-0.9
		c2.2,0,3.9,0.5,5.1,1.4c1.2,0.9,2,2.2,2.4,3.8l-3.5,0.7c-0.2-0.9-0.7-1.5-1.4-2.1c-0.7-0.5-1.5-0.8-2.6-0.8c-1.6,0-2.8,0.5-3.7,1.5
		c-0.9,1-1.4,2.5-1.4,4.4c0,2.1,0.5,3.7,1.4,4.7c0.9,1,2.1,1.6,3.7,1.6c0.7,0,1.5-0.1,2.2-0.4c0.7-0.3,1.4-0.6,1.9-1.1v-2.2H142.3z"
		/>
</g>
</svg>
