<?xml version="1.0" encoding="utf-8"?>
<!-- Generator: Adobe Illustrator 25.4.1, SVG Export Plug-In . SVG Version: 6.00 Build 0)  -->
<svg version="1.1" id="Calque_1" xmlns="http://www.w3.org/2000/svg" xmlns:xlink="http://www.w3.org/1999/xlink" x="0px" y="0px"
	 viewBox="0 0 150 40" style="enable-background:new 0 0 150 40;" xml:space="preserve">
<style type="text/css">
	.st0{fill:#FFFFFF;}
</style>
<g transform="translate(0.000000,500.000000) scale(0.100000,-0.100000)">
	<path class="st0" d="M156.3,4866.1l-32.5-12.6l16.4-3.1c15.7-2.7,16.1-2.7,16.1-18c0-12.2,2.7-18,13-28.3
		c5.7-5.7,13.3-12.1,23.3-13c18.1-1.7,31.1,16.4,31.9,17.6c0.2,0.5,0.4,0.9,0.6,1.2c0.3,0.4,0.5,0.5,0.8,1c0,0,0.3,0.5,0.6,1.1
		c4.8,11,6.2,23.1,6.2,23.1c0,11.5,1.1,12.6,13.8,15.3c7.6,1.1,12.6,3.8,10.7,5.4c-4.6,4.2-58.1,23.3-63.8,22.9
		C190.7,4878.7,174.2,4872.9,156.3,4866.1z"/>
	<path class="st0" d="M93.6,4813.7c35.2-26,75.3-68.8,88.3-94c5.7-11.1,11.9-20.3,13-20.3c1.1,0,9.6,11.5,18.7,25.2
		c18.7,29.1,54.7,68.8,81.4,90.2c21.4,16.8,20.6,17.6-4.2,6.5c-24.5-10.7-65-38.2-81-55c-6.9-7.3-14.1-13.4-15.3-13.4
		c-1.5,0-10.3,7.6-20.3,16.8c-9.6,9.6-26.8,22.9-37.8,30.2c-19.9,12.6-61.2,33.3-66.5,33.3C68.3,4833.2,79,4824.4,93.6,4813.7z"/>
	<path class="st0" d="M51.1,4808c6.9-17.6,14.5-45.1,24.5-89.4l10.7-47.4l13-3.1c34-6.9,71.9-32.1,87.5-57.7l6.5-10.3l10.7,15.3
		c13.4,19.1,48.5,43.2,73,49.3c10.3,2.7,20.6,5.4,22.9,6.1s5.4,9.9,6.9,20.3c2.7,21,18,82.2,26.8,107c3.1,8.8,5,16.1,3.4,16.1
		c-1.1,0-13.8-7.6-27.9-17.2c-40.1-26.8-76.1-67.7-97.9-111.2l-18.3-37.1l-4.6,13.4c-14.9,43.6-53.1,91-105.5,130.7
		c-9.2,6.9-20.6,14.9-25.6,17.6C48.9,4814.5,48.5,4814.5,51.1,4808z"/>
</g>
<path d="M23.2,18.9"/>
<g>
	<g>
		<path class="st0" d="M5.4,13.4c-0.6-0.8-1.2-1.5-1.8-2.3c0,0,0.1,0,0.1-0.1c0.6,0.5,1.1,0.9,1.5,1.1C6,12.6,6.6,12.6,7,12.3
			c0.3-0.2,0.5-0.5,0.5-0.9c0-0.4-0.1-0.9-0.4-1.3C7.1,9.9,6.9,9.7,6.7,9.5C6.6,9.3,6.4,9.2,6.2,9.1C6,9,5.8,8.9,5.5,8.9
			c-0.3,0-0.6-0.1-1.1-0.1c-0.4,0-0.8,0-1,0c-0.3,0-0.5-0.1-0.7-0.1c-0.5-0.2-1-0.5-1.4-1C1.1,7.3,1,6.9,0.9,6.5
			c-0.1-0.4-0.1-0.8,0-1.1C1,4.8,1.4,4.3,1.9,4c0.2-0.1,0.4-0.2,0.5-0.2c0.2,0,0.4-0.1,0.8-0.1c0.2,0,0.4,0,0.5,0
			c0.1,0,0.2,0,0.2-0.1C4.1,3.5,4.1,3.4,4,3.1c0,0,0.1,0,0.1-0.1c0.4,0.8,0.9,1.6,1.3,2.4c0,0-0.1,0-0.1,0.1C5.1,5.2,4.8,5,4.6,4.8
			C4.4,4.6,4.2,4.5,4.1,4.4C3.7,4.1,3.3,4,3,4c-0.3,0-0.6,0-0.9,0.2c-0.4,0.2-0.7,0.6-0.7,1c0,0.2,0,0.4,0,0.6
			C1.5,6,1.6,6.1,1.7,6.3C2.1,7,2.8,7.3,3.8,7.2c0.3,0,0.7,0,1,0c0.7,0,1.3,0.2,1.8,0.4c0.5,0.3,0.9,0.7,1.2,1.3
			C8,9.3,8.1,9.7,8.2,10.1c0.1,0.5,0.1,1-0.1,1.4c-0.1,0.4-0.4,0.7-0.8,1c-0.3,0.2-0.7,0.3-1.2,0.4c-0.2,0-0.4,0-0.4,0
			c0,0-0.1,0-0.1,0.1C5.4,13,5.4,13.1,5.4,13.4C5.5,13.4,5.5,13.4,5.4,13.4z"/>
		<path class="st0" d="M9.7,1.3c0,0,0,0.1,0,0.1C9.5,1.5,9.3,1.6,9.1,1.7C9,1.8,8.9,1.9,8.8,2.1C8.7,2.3,8.7,2.6,8.8,2.9
			C8.8,3.1,8.9,3.4,9,3.7c0.6,1.5,1.1,3.1,1.7,4.6c0.1,0.3,0.3,0.6,0.4,0.8c0.1,0.2,0.2,0.3,0.3,0.4c0.1,0.1,0.3,0.2,0.5,0.3
			c0.2,0,0.3,0,0.6,0c0,0,0,0.1,0,0.1c-1,0.3-1.9,0.6-2.9,1c0,0,0-0.1-0.1-0.1c0.2-0.1,0.3-0.2,0.4-0.3c0.1-0.1,0.1-0.2,0.2-0.4
			c0-0.2,0-0.4,0-0.6c-0.1-0.2-0.2-0.5-0.4-1c-0.7-1.5-1.3-3-2-4.6C7.5,3.7,7.4,3.3,7.2,3.2C7.1,3,6.9,2.8,6.8,2.7
			C6.6,2.7,6.4,2.6,6.3,2.6c-0.2,0-0.4,0-0.6,0.1c0,0,0-0.1-0.1-0.1C6.9,2.1,8.3,1.7,9.7,1.3z"/>
		<path class="st0" d="M18.9,0.1c0,0.9,0,1.9,0.1,2.8c0,0-0.1,0-0.1,0c-0.3-0.9-0.7-1.6-1.2-2.1c-0.5-0.4-1.1-0.6-1.8-0.6
			c-0.5,0-1,0.2-1.4,0.5c-0.4,0.3-0.7,0.6-0.9,1.2C13,3,13,4.1,13.3,5.3c0.1,0.6,0.3,1.1,0.6,1.6c0.2,0.5,0.5,0.9,0.8,1.3
			c0.6,0.7,1.2,1,1.8,0.9c0.2,0,0.5-0.1,0.7-0.3c0.2-0.2,0.4-0.4,0.5-0.6c0.2-0.3,0.2-0.8,0.2-1.2c0-0.4-0.1-0.7-0.3-0.9
			c-0.2-0.2-0.5-0.2-1-0.2c0,0,0-0.1,0-0.1c1.2-0.1,2.4-0.2,3.6-0.2c0,0,0,0.1,0,0.1c-0.3,0-0.6,0.1-0.7,0.2
			c-0.1,0.1-0.2,0.2-0.3,0.4C19.1,6.5,19,6.9,19,7.4c0,0.2,0,0.4,0,0.7c0,0,0,0.1,0,0.1c-0.1-0.1-0.2-0.1-0.3-0.1
			c-0.1,0-0.2,0.1-0.3,0.2c-0.3,0.3-0.6,0.5-0.9,0.7c-0.4,0.2-0.7,0.3-1.1,0.3c-0.6,0.1-1.1,0-1.6-0.2c-0.5-0.2-1-0.5-1.4-0.9
			c-0.3-0.3-0.6-0.7-0.9-1.1c-0.3-0.5-0.5-1-0.6-1.5c-0.2-0.8-0.3-1.5-0.2-2.2c0.1-0.7,0.3-1.3,0.7-1.8c0.3-0.4,0.8-0.8,1.3-1
			c0.5-0.3,1.1-0.4,1.8-0.5c0.4,0,0.7,0,1,0c0.3,0,0.7,0.1,1,0.3c0.1,0.1,0.3,0.1,0.4,0.2c0.1,0,0.2,0.1,0.3,0
			c0.2,0,0.3-0.2,0.4-0.4C18.7,0.1,18.8,0.1,18.9,0.1z"/>
		<path class="st0" d="M32.2,2.1C32,2,31.8,2,31.6,2c-0.2,0-0.3,0.1-0.5,0.1c-0.1,0.1-0.2,0.1-0.3,0.2c-0.1,0.1-0.2,0.2-0.3,0.4
			c-0.1,0.2-0.2,0.5-0.4,0.8c-0.7,1.5-1.3,3.1-2,4.6c-0.2,0.4-0.3,0.7-0.3,1c0,0.2-0.1,0.4,0,0.6c0.1,0.3,0.2,0.5,0.5,0.6
			c0,0,0,0.1-0.1,0.1c-0.9-0.3-1.9-0.6-2.9-0.8c0,0,0-0.1,0-0.1c0.2,0,0.3,0,0.5,0c0.1,0,0.3-0.1,0.4-0.2c0.1-0.1,0.3-0.3,0.4-0.5
			c0.1-0.2,0.2-0.5,0.4-0.9c0.7-1.9,1.4-3.7,2.1-5.6c-2,2.3-3.8,4.6-5.2,7.1c0,0-0.1,0-0.1,0c-0.2-2.7-0.7-5.3-1.5-7.9
			c-0.3,1.9-0.5,3.8-0.7,5.6c-0.1,0.4-0.1,0.8-0.1,1c0,0.2,0.1,0.4,0.1,0.5c0.1,0.1,0.2,0.2,0.3,0.3c0.1,0.1,0.2,0.1,0.4,0.1
			c0,0,0,0.1,0,0.1C21.8,9,21,9,20.3,8.9c0,0,0-0.1,0-0.1c0.2,0,0.3,0,0.5-0.1c0.1-0.1,0.2-0.1,0.3-0.3c0.1-0.1,0.2-0.3,0.3-0.5
			c0.1-0.2,0.1-0.5,0.2-1c0.2-1.6,0.3-3.2,0.5-4.7c0-0.2,0-0.4,0-0.6c0-0.3,0-0.6-0.1-0.7c-0.1-0.2-0.2-0.4-0.4-0.5
			c-0.2-0.1-0.4-0.2-0.8-0.2c0,0,0-0.1,0-0.1c1,0,2,0.1,3,0.2c0.6,2.4,0.9,4.8,1.1,7.2c1.3-2.1,3-4.2,4.8-6.2
			c0.9,0.2,1.7,0.5,2.6,0.7C32.2,2,32.2,2.1,32.2,2.1z"/>
		<path class="st0" d="M34.1,13.8c-0.8-0.7-1.6-1.2-2.4-1.8c0,0,0.1-0.1,0.1-0.1C32,12,32.2,12,32.4,12c0.3,0,0.5-0.2,0.7-0.4
			c0.1-0.2,0.2-0.4,0.3-0.7c0-0.1,0.1-0.2,0.1-0.3c0.2-0.5,0.4-1.1,0.6-1.6c-0.7-0.4-1.3-0.8-2.1-1.1c-0.2,0.2-0.5,0.5-0.7,0.7
			c-0.1,0.1-0.2,0.2-0.3,0.3c-0.4,0.4-0.6,0.7-0.8,0.9c-0.1,0.1-0.1,0.3-0.2,0.4c0,0.1,0,0.3,0,0.4c0,0.2,0.2,0.3,0.3,0.4
			c0,0-0.1,0.1-0.1,0.1c-0.6-0.3-1.2-0.6-1.9-0.8c0,0,0-0.1,0.1-0.1c0.2,0,0.3,0,0.5,0c0.2,0,0.4-0.2,0.6-0.3
			c0.2-0.1,0.4-0.3,0.6-0.5c0.2-0.2,0.6-0.6,1-1c1.6-1.6,3.4-3.2,5.3-4.7c0.1,0.1,0.2,0.1,0.3,0.2c-0.6,2.5-1.4,5-2.3,7.3
			c-0.2,0.5-0.4,0.9-0.5,1.2c-0.1,0.2-0.1,0.4-0.1,0.6c0,0.1,0,0.2,0.1,0.3c0,0.1,0.1,0.2,0.2,0.4C34.2,13.7,34.1,13.7,34.1,13.8z
			 M34.2,8.7c0.4-1.2,0.7-2.4,1-3.6c-1,0.8-2,1.7-2.9,2.6C32.9,8,33.5,8.3,34.2,8.7z"/>
	</g>
</g>
<g>
	<path class="st0" d="M39.4,17.3v-0.5h3.3v0.5l-1.5,0.2H41L39.4,17.3z M41.1,24.2v0.7h-1.7v-0.5l1.5-0.2H41.1z M40.5,16.8h1.1
		c0,1.2,0,2.5,0,3.7v0.8c0,1,0,2.2,0,3.4h-1.1c0-1.2,0-2.5,0-3.7v-0.6C40.6,19.3,40.6,18,40.5,16.8z M45.5,22.6l-0.1,2.2h-4.2v-0.6
		h3.8l-0.7,0.6l0.5-2.2H45.5z"/>
	<path class="st0" d="M46.3,17.3v-0.5H48v0.7h-0.1L46.3,17.3z M48,24.2v0.7h-1.7v-0.5l1.5-0.2H48z M47.4,20.5c0-1.2,0-2.5,0-3.7h1.1
		c0,1.2,0,2.4,0,3.7V21c0,1.4,0,2.6,0,3.8h-1.1c0-1.2,0-2.4,0-3.7V20.5z M51.2,16.8l0.5,0.6H48v-0.6h4.2l0.1,2.1h-0.7L51.2,16.8z
		 M50.6,21H48v-0.5h2.7V21z M52.5,22.7l-0.1,2.1H48v-0.6H52l-0.5,0.6l0.4-2.1H52.5z M50.3,20.6l0.2-1.3H51v2.8h-0.5l-0.2-1.3V20.6z"
		/>
	<path class="st0" d="M53,24.3l1.2-0.2h0.2l1.3,0.2v0.5H53V24.3z M56.5,16.8h0.7l2.7,8h-1.1l-2.4-7.1h0.3l-2.4,7.1h-0.6L56.5,16.8z
		 M55.1,21.7h3.2l0.2,0.5H55L55.1,21.7z M57.5,24.3l1.5-0.2h0.2l1.5,0.2v0.5h-3.2V24.3z"/>
	<path class="st0" d="M61.2,17.3v-0.5h1.7v0.7h-0.1L61.2,17.3z M63,24.2l1.5,0.2v0.5h-3.3v-0.5l1.5-0.2H63z M62.4,20.5
		c0-1.2,0-2.5,0-3.7h1.1c0,1.2,0,2.4,0,3.8V21c0,1.3,0,2.6,0,3.8h-1.1c0-1.2,0-2.4,0-3.7V20.5z M62.9,20.6h1.5
		c1.3,0,1.9-0.7,1.9-1.7c0-1-0.5-1.5-1.8-1.5h-1.6v-0.5h1.6c1.8,0,2.9,0.8,2.9,2.1c0,1-0.8,1.9-2.4,2.1l0-0.1
		c0.9,0.1,1.4,0.5,1.7,1.5l0.6,2L67,24.2l1.2,0.1v0.5c-0.2,0.1-0.5,0.1-0.9,0.1c-0.7,0-1.1-0.2-1.2-0.7l-0.5-1.9
		c-0.2-1-0.7-1.1-1.7-1.1h-1.1V20.6z"/>
	<path class="st0" d="M68.9,24.3l1.2-0.2h0.2l1.4,0.2v0.5h-2.9V24.3z M69.6,17.2l0.7,0.3l-1.4-0.2v-0.5h1.8l4.9,6.8v1.3h-0.4
		L69.6,17.2z M69.9,16.8l0.6,0.5v7.5h-0.6V16.8z M73.8,16.8h2.9v0.5l-1.2,0.2h-0.2l-1.4-0.2V16.8z M75.1,16.8h0.6v8l-0.6-0.6V16.8z"
		/>
	<path class="st0" d="M77.6,17.3v-0.5h3.3v0.5l-1.5,0.2h-0.2L77.6,17.3z M79.3,24.2l1.5,0.2v0.5h-3.3v-0.5l1.5-0.2H79.3z M78.7,20.5
		c0-1.2,0-2.5,0-3.7h1.1c0,1.2,0,2.4,0,3.7v0.6c0,1.2,0,2.5,0,3.7h-1.1c0-1.2,0-2.4,0-3.7V20.5z"/>
	<path class="st0" d="M81.9,24.3l1.2-0.2h0.2l1.4,0.2v0.5h-2.9V24.3z M82.7,17.2l0.7,0.3L82,17.3v-0.5h1.8l4.9,6.8v1.3h-0.4
		L82.7,17.2z M82.9,16.8l0.6,0.5v7.5h-0.6V16.8z M86.8,16.8h2.9v0.5l-1.2,0.2h-0.2l-1.4-0.2V16.8z M88.1,16.8h0.6v8l-0.6-0.6V16.8z"
		/>
	<path class="st0" d="M97.1,24.3c-0.8,0.4-1.6,0.7-2.6,0.7c-2.4,0-4-1.8-4-4.2c0-2.4,1.6-4.2,4-4.2c1,0,1.7,0.2,2.4,0.6l0,1.7h-0.7
		L96,17.2l0.7,0.2v0.7c-0.6-0.6-1.3-0.9-2.1-0.9c-1.7,0-2.9,1.3-2.9,3.6c0,2.3,1.1,3.6,3,3.6c0.7,0,1.2-0.2,1.9-0.5L96,24.5v-0.7
		c0-0.9,0-1.8,0-2.7h1.1c0,0.9,0,1.8,0,2.7V24.3z M94.8,21.5V21h3.1v0.5l-1.3,0.1h-0.2L94.8,21.5z"/>
	<path class="st0" d="M107.2,23.6v0.7l-0.7,0.2l0.3-1.8h0.7l0,1.7c-0.7,0.4-1.6,0.6-2.4,0.6c-2.4,0-4-1.7-4-4.2c0-2.4,1.7-4.2,4-4.2
		c0.6,0,1.5,0.1,2.3,0.6l0,1.7h-0.7l-0.3-1.8l0.7,0.2v0.7c-0.7-0.6-1.3-0.8-1.9-0.8c-1.6,0-2.9,1.2-2.9,3.6c0,2.3,1.2,3.6,2.8,3.6
		C105.7,24.4,106.5,24.2,107.2,23.6z"/>
	<path class="st0" d="M108.5,17.3v-0.5h1.7v0.7H110L108.5,17.3z M110.1,24.2v0.7h-1.7v-0.5l1.5-0.2H110.1z M109.6,20.5
		c0-1.2,0-2.5,0-3.7h1.1c0,1.2,0,2.4,0,3.7V21c0,1.4,0,2.6,0,3.8h-1.1c0-1.2,0-2.4,0-3.7V20.5z M113.4,16.8l0.5,0.6h-3.8v-0.6h4.2
		l0.1,2.1h-0.7L113.4,16.8z M112.8,21h-2.7v-0.5h2.7V21z M114.7,22.7l-0.1,2.1h-4.5v-0.6h4.1l-0.5,0.6l0.4-2.1H114.7z M112.4,20.6
		l0.2-1.3h0.5v2.8h-0.5l-0.2-1.3V20.6z"/>
	<path class="st0" d="M115.6,24.3l1.2-0.2h0.2l1.4,0.2v0.5h-2.9V24.3z M116.3,17.2l0.7,0.3l-1.4-0.2v-0.5h1.8l4.9,6.8v1.3H122
		L116.3,17.2z M116.6,16.8l0.6,0.5v7.5h-0.6V16.8z M120.5,16.8h2.9v0.5l-1.2,0.2h-0.2l-1.4-0.2V16.8z M121.8,16.8h0.6v8l-0.6-0.6
		V16.8z"/>
	<path class="st0" d="M124.6,17.4l0.5-0.6l-0.4,2.1h-0.7l0.1-2.1h6.5l0.1,2.1h-0.7l-0.4-2.1l0.5,0.6H124.6z M127.5,24.2l1.7,0.2v0.5
		h-3.6v-0.5l1.7-0.2H127.5z M126.9,20.5c0-1.2,0-2.5,0-3.7h1.1c0,1.2,0,2.4,0,3.7v0.6c0,1.2,0,2.5,0,3.7h-1.1c0-1.2,0-2.4,0-3.7
		V20.5z"/>
	<path class="st0" d="M131.5,17.3v-0.5h1.7v0.7h-0.1L131.5,17.3z M133.2,24.2v0.7h-1.7v-0.5l1.5-0.2H133.2z M132.7,20.5
		c0-1.2,0-2.5,0-3.7h1.1c0,1.2,0,2.4,0,3.7V21c0,1.4,0,2.6,0,3.8h-1.1c0-1.2,0-2.4,0-3.7V20.5z M136.5,16.8l0.5,0.6h-3.8v-0.6h4.2
		l0.1,2.1h-0.7L136.5,16.8z M135.9,21h-2.7v-0.5h2.7V21z M137.8,22.7l-0.1,2.1h-4.5v-0.6h4.1l-0.5,0.6l0.4-2.1H137.8z M135.5,20.6
		l0.2-1.3h0.5v2.8h-0.5l-0.2-1.3V20.6z"/>
	<path class="st0" d="M138.7,17.3v-0.5h1.7v0.7h-0.1L138.7,17.3z M140.5,24.2l1.5,0.2v0.5h-3.3v-0.5l1.5-0.2H140.5z M139.8,20.5
		c0-1.2,0-2.5,0-3.7h1.1c0,1.2,0,2.4,0,3.8V21c0,1.3,0,2.6,0,3.8h-1.1c0-1.2,0-2.4,0-3.7V20.5z M140.4,20.6h1.5
		c1.3,0,1.9-0.7,1.9-1.7c0-1-0.5-1.5-1.8-1.5h-1.6v-0.5h1.6c1.8,0,2.9,0.8,2.9,2.1c0,1-0.8,1.9-2.4,2.1l0-0.1
		c0.9,0.1,1.4,0.5,1.7,1.5l0.6,2l-0.4-0.2l1.2,0.1v0.5c-0.2,0.1-0.5,0.1-0.9,0.1c-0.7,0-1.1-0.2-1.2-0.7l-0.5-1.9
		c-0.2-1-0.7-1.1-1.7-1.1h-1.1V20.6z"/>
</g>
</svg>
