<?xml version="1.0" encoding="utf-8"?>
<!-- Generator: Adobe Illustrator 25.4.1, SVG Export Plug-In . SVG Version: 6.00 Build 0)  -->
<svg version="1.1" id="Calque_1" xmlns="http://www.w3.org/2000/svg" xmlns:xlink="http://www.w3.org/1999/xlink" x="0px" y="0px"
	 viewBox="0 0 239 300" style="enable-background:new 0 0 239 300;" xml:space="preserve">
<style type="text/css">
	.st0{fill:url(#SVGID_1_);}
	.st1{fill:url(#SVGID_00000008834920324875991410000000805277879083342510_);}
	.st2{fill:url(#SVGID_00000163038480946812554250000015720751449418484608_);}
	.st3{fill:#020203;}
	.st4{fill:#4976BA;}
	.st5{fill:#4876BA;}
</style>
<g transform="translate(0.000000,500.000000) scale(0.100000,-0.100000)">
	
		<linearGradient id="SVGID_1_" gradientUnits="userSpaceOnUse" x1="7064.9072" y1="54000.1055" x2="7130.9741" y2="54000.1055" gradientTransform="matrix(0.1 0 0 0.1 153 -1476)">
		<stop  offset="0" style="stop-color:#9ACBEF"/>
		<stop  offset="2.056420e-02" style="stop-color:#97C7EC"/>
		<stop  offset="0.2045" style="stop-color:#79AAD9"/>
		<stop  offset="0.3928" style="stop-color:#6194CA"/>
		<stop  offset="0.5853" style="stop-color:#5185BF"/>
		<stop  offset="0.7843" style="stop-color:#477CB8"/>
		<stop  offset="1" style="stop-color:#447AB6"/>
	</linearGradient>
	<path class="st0" d="M1020,4077.9l-160.5-62.2l81.1-15c77.4-13.2,79.3-13.2,79.3-88.7c0-60.4,13.2-88.7,64.2-139.6
		c28.1-28.1,65.5-59.5,115.1-64.2c89.5-8.4,153.7,81.1,157.7,87c0.9,2.4,2.1,4.3,3.1,5.7c1.4,2.1,2.3,2.6,3.8,4.7
		c0,0,1.6,2.3,3.1,5.6c23.6,54.1,30.7,114.1,30.7,114.1c0,56.6,5.7,62.2,67.9,75.4c37.7,5.7,62.2,18.9,52.9,26.4
		c-22.7,20.7-286.8,115.1-315.1,113.3C1189.8,4140.1,1108.6,4111.9,1020,4077.9z"/>
	
		<linearGradient id="SVGID_00000079445748064560687780000017599616041569588374_" gradientUnits="userSpaceOnUse" x1="4396.6943" y1="50612.3125" x2="4515.4746" y2="50612.3125" gradientTransform="matrix(0.1 0 0 0.1 153 -1476)">
		<stop  offset="0" style="stop-color:#9ACBEF"/>
		<stop  offset="2.056420e-02" style="stop-color:#97C7EC"/>
		<stop  offset="0.2045" style="stop-color:#79AAD9"/>
		<stop  offset="0.3928" style="stop-color:#6194CA"/>
		<stop  offset="0.5853" style="stop-color:#5185BF"/>
		<stop  offset="0.7843" style="stop-color:#477CB8"/>
		<stop  offset="1" style="stop-color:#447AB6"/>
	</linearGradient>
	<path style="fill:url(#SVGID_00000079445748064560687780000017599616041569588374_);" d="M710.4,3819.3
		c173.7-128.3,371.8-339.7,435.9-464.3c28.3-54.7,58.5-100.1,64.2-100.1s47.2,56.6,92.4,124.6c92.4,143.5,269.9,339.7,402,445.4
		c105.6,83.1,101.9,86.8-20.7,32.1c-120.8-52.9-320.8-188.7-400.1-271.8c-34-35.9-69.9-66.1-75.4-66.1c-7.5,0-50.9,37.7-100.1,83.1
		c-47.2,47.2-132.1,113.3-186.8,149.1c-98.1,62.2-302,164.2-328.3,164.2C585.9,3915.6,638.7,3872.2,710.4,3819.3z"/>
	
		<linearGradient id="SVGID_00000094614451380067890800000013878756368694713515_" gradientUnits="userSpaceOnUse" x1="3406.8721" y1="47689.1094" x2="3549.0305" y2="47689.1094" gradientTransform="matrix(0.1 0 0 0.1 153 -1476)">
		<stop  offset="0" style="stop-color:#9ACBEF"/>
		<stop  offset="2.056420e-02" style="stop-color:#97C7EC"/>
		<stop  offset="0.2045" style="stop-color:#79AAD9"/>
		<stop  offset="0.3928" style="stop-color:#6194CA"/>
		<stop  offset="0.5853" style="stop-color:#5185BF"/>
		<stop  offset="0.7843" style="stop-color:#477CB8"/>
		<stop  offset="1" style="stop-color:#447AB6"/>
	</linearGradient>
	<path style="fill:url(#SVGID_00000094614451380067890800000013878756368694713515_);" d="M501,3791.1
		c34-86.8,71.7-222.7,120.8-441.6l52.9-234l64.2-15c168-34,354.8-158.5,432.2-285l32.1-50.9l52.9,75.4
		c66.1,94.4,239.7,213.2,360.5,243.4c50.9,13.2,101.9,26.4,113.3,30.2c11.3,3.8,26.4,49.1,34,100.1
		c13.2,103.8,88.7,405.7,132.1,528.5c15,43.4,24.5,79.3,17,79.3c-5.7,0-67.9-37.7-137.8-84.9c-198.2-132.1-375.5-334-483.1-549.2
		l-90.6-183l-22.7,66.1c-73.6,215.2-262.3,449.1-520.9,645.4c-45.2,34-101.9,73.6-126.5,86.8C489.7,3823.1,487.7,3823.1,501,3791.1z
		"/>
</g>
<path class="st3" d="M139.6,119.3"/>
<g>
	<g>
		<path class="st4" d="M51.7,92.3c-3-3.8-5.8-7.5-8.8-11.3c0.1-0.1,0.3-0.2,0.5-0.3c2.8,2.5,5.2,4.2,7.3,5.4
			c3.8,2.1,6.6,2.4,8.9,0.9c1.6-0.9,2.4-2.4,2.5-4.6c0.1-2.1-0.5-4.2-1.8-6.6c-0.6-1-1.3-1.9-2.2-2.8c-0.9-0.9-1.7-1.6-2.6-2.2
			c-0.9-0.6-2.1-0.9-3.3-1.1c-1.3-0.2-3.1-0.3-5.5-0.5c-2.2,0-3.8,0-5-0.1c-1.3-0.1-2.3-0.3-3.3-0.6c-2.6-0.8-4.9-2.5-6.7-5.1
			c-1.1-1.6-1.9-3.3-2.4-5.2c-0.5-1.9-0.5-3.8-0.1-5.5c0.7-3.2,2.4-5.6,5.2-7.1c0.9-0.5,1.8-0.8,2.7-1c0.9-0.2,2.2-0.3,3.8-0.5
			c1.3-0.1,2.1-0.1,2.4-0.2c0.5,0,0.8-0.1,1-0.2c0.7-0.3,0.9-1,0.6-2.2c0.2-0.1,0.5-0.2,0.7-0.3c2.2,4,4.3,8,6.4,12
			c-0.2,0.1-0.5,0.2-0.7,0.3c-1.5-1.7-2.7-3-3.6-3.8s-1.8-1.6-2.8-2.2c-1.8-1.1-3.4-1.8-5-1.9c-1.6-0.2-3.1,0.1-4.6,0.9
			c-2.2,1.1-3.3,2.8-3.5,5.1c-0.1,0.9,0,1.8,0.2,2.8c0.2,1,0.7,1.9,1.3,2.7c2.2,3.3,5.8,4.7,10.6,4.6c1.6,0,3.2,0,4.8,0
			c3.6,0,6.6,0.8,8.8,2.1c2.5,1.5,4.4,3.5,5.9,6.3c0.9,1.8,1.6,3.6,1.9,5.6c0.5,2.7,0.3,5-0.3,7c-0.7,2.1-2.1,3.5-3.9,4.7
			c-1.7,1-3.6,1.7-5.9,1.8c-1.1,0.1-1.8,0.1-2.1,0.2c-0.2,0-0.5,0.1-0.6,0.2c-0.6,0.5-0.7,1.3-0.2,2.3
			C51.9,92.1,51.8,92.2,51.7,92.3z"/>
		<path class="st4" d="M72.6,32.6c0.1,0.2,0.1,0.5,0.2,0.7c-1.3,0.3-2.2,0.8-2.8,1.3c-0.7,0.5-1.3,1.1-1.6,1.8
			c-0.6,1-0.6,2.4-0.2,3.9c0.2,1.1,0.7,2.4,1.3,3.9c2.8,7.6,5.7,15.3,8.7,22.8c0.7,1.7,1.3,3,1.7,4c0.5,0.9,1,1.7,1.5,2.2
			c0.7,0.7,1.5,1.1,2.3,1.4c0.8,0.2,1.7,0.2,2.7,0c0.1,0.2,0.1,0.5,0.2,0.7c-4.9,1.4-9.6,3.1-14.2,5.1c-0.1-0.2-0.2-0.5-0.3-0.7
			c0.8-0.5,1.4-0.9,1.8-1.4c0.3-0.5,0.7-1.1,0.8-1.8c0.2-0.8,0.1-1.8-0.1-2.8s-0.9-2.6-1.8-4.7c-3.3-7.5-6.5-15-9.7-22.6
			c-0.9-2.2-1.6-3.6-2.3-4.6c-0.7-0.9-1.5-1.6-2.4-2.1c-0.8-0.5-1.6-0.6-2.5-0.6c-0.9,0-1.9,0.2-3.1,0.6c-0.1-0.2-0.2-0.5-0.3-0.7
			C58.9,36.4,65.6,34.2,72.6,32.6z"/>
		<path class="st4" d="M117.9,26.8c0.1,4.7,0.2,9.2,0.2,13.9c-0.2,0-0.5,0-0.7,0.1c-1.4-4.7-3.4-8.1-5.8-10.3
			c-2.5-2.2-5.6-3.2-9-2.8c-2.7,0.2-4.9,1-6.7,2.3c-1.7,1.3-3.2,3.2-4.4,5.7c-2.3,5.2-2.5,10.8-1.1,16.9c0.7,2.8,1.7,5.5,2.8,8
			c1.3,2.4,2.6,4.6,4.2,6.3c3.1,3.4,5.9,4.9,8.9,4.6c1.1-0.1,2.3-0.6,3.3-1.4c1-0.8,1.8-1.8,2.4-3c0.8-1.7,1.3-3.8,1.1-5.9
			c-0.1-2.1-0.7-3.6-1.7-4.4c-1-0.9-2.7-1.3-4.9-1c0-0.2,0-0.5-0.1-0.7c5.8-0.6,11.7-0.8,17.7-0.8c0,0.2,0,0.5,0,0.7
			c-1.6,0.1-2.7,0.5-3.4,0.8c-0.7,0.3-1.1,0.9-1.5,1.8c-0.3,0.9-0.5,2.8-0.5,5.6c0,0.8,0,1.9,0.1,3.5c0,0.2,0,0.5,0.1,0.7
			c-0.6-0.2-1.1-0.5-1.4-0.5c-0.3,0-0.8,0.2-1.4,0.8c-1.4,1.4-3,2.4-4.7,3.2c-1.7,0.8-3.6,1.4-5.6,1.6c-2.7,0.3-5.4,0.1-7.9-0.8
			c-2.5-0.8-4.8-2.3-6.8-4.2c-1.6-1.5-3-3.4-4.3-5.7c-1.4-2.3-2.4-4.8-3.2-7.5c-1.1-3.8-1.5-7.4-1.1-10.8c0.5-3.5,1.6-6.6,3.6-9.1
			c1.7-2.1,3.9-3.8,6.5-5.1c2.6-1.4,5.6-2.2,8.7-2.4c1.8-0.2,3.5-0.1,5.1,0c1.6,0.2,3.3,0.6,5,1.3c0.7,0.2,1.4,0.5,2.1,0.8
			c0.5,0.1,0.9,0.2,1.4,0.2c0.9,0,1.6-0.8,2.1-2.2C117.4,26.8,117.7,26.8,117.9,26.8z"/>
		<path class="st4" d="M183.8,36.5c-1.1-0.3-2.2-0.5-3-0.5c-0.8,0-1.7,0.2-2.5,0.7c-0.7,0.3-1.1,0.7-1.6,1.1c-0.5,0.5-0.9,1-1.4,1.8
			c-0.6,1-1.3,2.3-1.8,3.8c-3.3,7.5-6.5,15.2-9.7,22.7c-0.9,2.1-1.5,3.6-1.7,4.8c-0.2,1-0.2,2.1-0.1,2.7c0.3,1.4,1.3,2.3,2.6,3
			c-0.1,0.2-0.2,0.5-0.3,0.7c-4.6-1.7-9.2-3.1-14-4.1c0.1-0.2,0.1-0.5,0.2-0.7c0.9,0.1,1.7,0.1,2.3,0c0.7-0.1,1.3-0.5,1.9-0.9
			c0.7-0.6,1.4-1.3,1.8-2.3c0.6-1,1.3-2.5,1.9-4.6c3.4-9.2,6.8-18.5,10.4-27.7c-10,11.3-18.7,22.9-25.5,35c-0.1,0-0.3,0-0.5-0.1
			c-1.1-13.1-3.5-26.2-7.4-39.1c-1.3,9.2-2.4,18.6-3.4,27.8c-0.2,2.2-0.3,3.8-0.2,4.9c0.1,1,0.3,1.9,0.7,2.6
			c0.3,0.7,0.8,1.1,1.4,1.5s1.3,0.6,2.2,0.7c0,0.2-0.1,0.5-0.1,0.7c-3.6-0.3-7.2-0.6-10.8-0.7c0-0.2,0-0.5,0-0.7
			c0.9,0,1.7-0.2,2.3-0.5s1.1-0.7,1.6-1.3c0.6-0.7,1-1.5,1.3-2.5c0.3-1,0.6-2.6,0.8-4.8c0.8-7.9,1.7-15.6,2.6-23.5
			c0.1-1,0.2-1.9,0.2-2.7c0.1-1.6,0-2.7-0.3-3.4c-0.5-1-1.1-1.8-2.1-2.3c-0.9-0.6-2.2-0.8-3.8-0.9c0-0.2,0-0.5,0.1-0.7
			c4.9,0.1,9.8,0.3,14.7,0.8c2.7,11.7,4.6,23.6,5.2,35.3c6.6-10.5,14.6-20.7,23.7-30.8c4.3,1,8.7,2.3,12.9,3.6
			C184,36,183.9,36.3,183.8,36.5z"/>
		<path class="st4" d="M193.1,94c-3.8-3.3-7.6-6.2-11.9-8.7c0.1-0.2,0.3-0.5,0.5-0.7c1.3,0.6,2.3,0.8,3,0.7c1.4-0.2,2.5-0.9,3.4-2.2
			c0.6-0.8,1.1-1.9,1.7-3.4c0.2-0.5,0.3-0.9,0.6-1.4c0.9-2.6,1.8-5.2,2.7-8c-3.3-1.9-6.6-3.8-10.1-5.4c-1.3,1.1-2.4,2.4-3.5,3.5
			c-0.6,0.6-1,1-1.6,1.6c-1.9,1.8-3.2,3.4-3.9,4.7c-0.5,0.7-0.7,1.5-0.8,2.2c-0.1,0.7-0.1,1.4,0.1,1.9c0.2,0.8,0.8,1.4,1.5,1.9
			c-0.1,0.2-0.2,0.5-0.3,0.7c-3-1.5-6.2-2.8-9.3-4c0.1-0.2,0.2-0.5,0.3-0.7c0.8,0.2,1.6,0.2,2.4,0c0.8-0.2,1.7-0.8,2.8-1.5
			c0.9-0.6,1.9-1.5,3.1-2.6c1.1-1.1,2.7-2.7,5-4.9c8.1-8.1,16.9-15.8,26.4-23.4c0.6,0.2,1,0.6,1.6,0.8c-3,12.4-6.8,24.5-11.5,36.2
			c-1.1,2.6-1.8,4.6-2.3,5.7c-0.3,1.1-0.6,2.2-0.6,3c0,0.6,0.1,1,0.3,1.5c0.2,0.5,0.7,1,1.3,1.8C193.5,93.7,193.4,93.9,193.1,94z
			 M193.5,69c1.8-5.8,3.5-11.9,4.9-17.8c-5,4.2-9.8,8.4-14.5,12.8C187.2,65.5,190.4,67.1,193.5,69z"/>
	</g>
</g>
<rect x="5.9" y="211.6" class="st4" width="53.3" height="2.1"/>
<rect x="180.2" y="212.7" class="st4" width="53.3" height="2.1"/>
<g>
	<path class="st5" d="M5.9,231.6v-1h7.2v1l-3.3,0.3H9.2L5.9,231.6z M9.4,246.2v1.4H5.9v-1l3.3-0.3H9.4z M8.3,230.6h2.4
		c-0.1,2.6-0.1,5.2-0.1,7.9v1.8c0,2.2,0,4.8,0.1,7.4H8.3c0.1-2.6,0.1-5.2,0.1-7.9v-1.3C8.3,235.8,8.3,233.2,8.3,230.6z M18.8,242.9
		l-0.2,4.8H9.4v-1.3h8.2l-1.4,1.3l1-4.8H18.8z"/>
	<path class="st5" d="M20.6,231.6v-1h3.5v1.4h-0.2L20.6,231.6z M24.1,246.2v1.4h-3.5v-1l3.3-0.3H24.1z M23,238.4
		c0-2.6,0-5.2-0.1-7.9h2.4c-0.1,2.6-0.1,5.2-0.1,7.9v0.9c0,3,0,5.6,0.1,8.2h-2.4c0.1-2.6,0.1-5.2,0.1-7.9V238.4z M31.2,230.6
		l1.1,1.3h-8.2v-1.3h9.1l0.2,4.6H32L31.2,230.6z M29.9,239.5h-5.7v-1.1h5.7V239.5z M33.9,243.1l-0.2,4.6h-9.6v-1.3h8.7l-1.1,1.3
		l0.8-4.6H33.9z M29.1,238.5l0.3-2.7h1.1v6h-1.1l-0.3-2.8V238.5z"/>
	<path class="st5" d="M35,246.6l2.5-0.3h0.5l2.8,0.3v1H35V246.6z M42.5,230.4H44l5.8,17.2h-2.4l-5.1-15.3h0.6l-5,15.3h-1.1
		L42.5,230.4z M39.5,240.8h6.8l0.5,1.1h-7.6L39.5,240.8z M44.5,246.6l3.2-0.3h0.5l3.2,0.3v1h-6.8V246.6z"/>
	<path class="st5" d="M52.6,231.6v-1h3.5v1.4h-0.2L52.6,231.6z M56.4,246.2l3.3,0.3v1h-7.1v-1l3.3-0.3H56.4z M55,238.4
		c0-2.6,0-5.2-0.1-7.9h2.4c-0.1,2.6-0.1,5.1-0.1,8.1v0.8c0,2.8,0,5.5,0.1,8.1h-2.4c0.1-2.6,0.1-5.2,0.1-7.9V238.4z M56.2,238.5h3.2
		c2.7,0,4.1-1.5,4.1-3.5c0-2.2-1.1-3.3-3.8-3.3h-3.4v-1.1h3.5c3.9,0,6.2,1.7,6.2,4.4c0,2.2-1.7,4.1-5,4.4l0.1-0.2
		c1.8,0.2,3,1,3.6,3.3l1.3,4.2l-0.8-0.5l2.6,0.3v1c-0.5,0.1-1,0.2-1.8,0.2c-1.6,0-2.3-0.5-2.6-1.6l-1-4.1c-0.5-2.1-1.5-2.4-3.5-2.4
		h-2.4v-1.3H56.2z"/>
	<path class="st5" d="M69,246.6l2.6-0.3h0.5l3,0.3v1h-6.2v-1H69z M70.6,231.4l1.6,0.6l-3.1-0.3v-1H73l10.6,14.6v2.7h-0.8L70.6,231.4
		z M71.2,230.6l1.3,1v16.1h-1.3V230.6z M79.5,230.6h6.2v1l-2.5,0.3h-0.5l-3.1-0.3v-1H79.5z M82.3,230.6h1.3v17.2l-1.3-1.3V230.6z"/>
	<path class="st5" d="M87.6,231.6v-1h7.2v1l-3.3,0.3H91L87.6,231.6z M91.4,246.2l3.3,0.3v1h-7.2v-1l3.3-0.3H91.4z M90,238.4
		c0-2.6,0-5.2-0.1-7.9h2.4c-0.1,2.6-0.1,5.2-0.1,7.9v1.3c0,2.6,0,5.2,0.1,7.9h-2.4c0.1-2.6,0.1-5.2,0.1-7.9V238.4z"/>
	<path class="st5" d="M96.8,246.6l2.6-0.3h0.5l3,0.3v1h-6.2v-1H96.8z M98.4,231.4l1.6,0.6l-3.1-0.3v-1h3.9l10.6,14.6v2.7h-0.8
		L98.4,231.4z M99,230.6l1.3,1v16.1H99V230.6z M107.4,230.6h6.2v1l-2.5,0.3h-0.5l-3.1-0.3v-1H107.4z M110.1,230.6h1.3v17.2l-1.3-1.3
		V230.6z"/>
	<path class="st5" d="M129.4,246.5c-1.7,0.9-3.5,1.5-5.6,1.5c-5.1,0-8.5-3.8-8.5-8.9c0-5.1,3.5-8.9,8.7-8.9c2.2,0,3.6,0.3,5.1,1.3
		l0.1,3.6h-1.6l-0.7-3.8l1.6,0.5v1.5c-1.4-1.3-2.7-1.8-4.4-1.8c-3.5,0-6.2,2.7-6.2,7.6c0,4.8,2.4,7.6,6.4,7.6c1.5,0,2.5-0.3,4-1
		l-1.1,1.1v-1.5c0-1.9,0-3.9-0.1-5.8h2.4c0,1.9-0.1,3.9-0.1,5.8v1.1H129.4z M124.4,240.6v-1h6.6v1l-2.8,0.2h-0.5L124.4,240.6z"/>
	<path class="st5" d="M151,245v1.4l-1.6,0.3l0.7-3.8h1.6l-0.1,3.6c-1.6,0.9-3.3,1.3-5.1,1.3c-5.1,0-8.5-3.8-8.5-8.9
		c0-5.1,3.6-8.9,8.5-8.9c1.4,0,3.2,0.2,4.9,1.3l0.1,3.6h-1.6l-0.7-3.8l1.6,0.3v1.6c-1.5-1.4-2.8-1.8-4.1-1.8c-3.4,0-6.2,2.6-6.2,7.6
		s2.5,7.6,6,7.6C147.9,246.7,149.5,246.3,151,245z"/>
	<path class="st5" d="M153.7,231.6v-1h3.5v1.4H157L153.7,231.6z M157.2,246.2v1.4h-3.5v-1l3.3-0.3H157.2z M156.1,238.4
		c0-2.6,0-5.2-0.1-7.9h2.4c-0.1,2.6-0.1,5.2-0.1,7.9v0.9c0,3,0,5.6,0.1,8.2H156c0.1-2.6,0.1-5.2,0.1-7.9V238.4z M164.3,230.6
		l1.1,1.3h-8.2v-1.3h9.1l0.2,4.6h-1.5L164.3,230.6z M163.1,239.5h-5.7v-1.1h5.7V239.5z M167,243.1l-0.2,4.6h-9.6v-1.3h8.7l-1.1,1.3
		l0.8-4.6H167z M162.3,238.5l0.3-2.7h1.1v6h-1.1l-0.3-2.8V238.5z"/>
	<path class="st5" d="M169,246.6l2.6-0.3h0.5l3,0.3v1h-6.2v-1H169z M170.6,231.4l1.6,0.6l-3.1-0.3v-1h3.9l10.6,14.6v2.7h-0.8
		L170.6,231.4z M171.1,230.6l1.3,1v16.1h-1.3V230.6z M179.6,230.6h6.2v1l-2.5,0.3h-0.7l-3.1-0.3v-1H179.6z M182.2,230.6h1.3v17.2
		l-1.3-1.3V230.6z"/>
	<path class="st5" d="M188.2,231.8l1.1-1.3l-0.8,4.6h-1.5l0.2-4.6h13.9l0.2,4.6H200l-0.8-4.6l1.1,1.3H188.2z M194.6,246.2l3.5,0.3v1
		h-7.6v-1l3.5-0.3H194.6z M193.1,238.4c0-2.6,0-5.2-0.1-7.9h2.4c-0.1,2.6-0.1,5.2-0.1,7.9v1.3c0,2.6,0,5.2,0.1,7.9H193
		c0.1-2.6,0.1-5.2,0.1-7.9V238.4z"/>
	<path class="st5" d="M203.2,231.6v-1h3.5v1.4h-0.2L203.2,231.6z M206.7,246.2v1.4h-3.5v-1l3.3-0.3H206.7z M205.6,238.4
		c0-2.6,0-5.2-0.1-7.9h2.4c-0.1,2.6-0.1,5.2-0.1,7.9v0.9c0,3,0,5.6,0.1,8.2h-2.4c0.1-2.6,0.1-5.2,0.1-7.9V238.4z M213.8,230.6
		l1.1,1.3h-8.2v-1.3h9.1l0.2,4.6h-1.5L213.8,230.6z M212.4,239.5h-5.7v-1.1h5.7V239.5z M216.5,243.1l-0.2,4.6h-9.6v-1.3h8.7
		l-1.1,1.3l0.8-4.6H216.5z M211.6,238.5l0.3-2.7h1.1v6h-1.1l-0.3-2.8V238.5z"/>
	<path class="st5" d="M218.6,231.6v-1h3.5v1.4h-0.2L218.6,231.6z M222.3,246.2l3.3,0.3v1h-7.2v-1l3.3-0.3H222.3z M221,238.4
		c0-2.6,0-5.2-0.1-7.9h2.4c-0.1,2.6-0.1,5.1-0.1,8.1v0.8c0,2.8,0,5.5,0.1,8.1h-2.4c0.1-2.6,0.1-5.2,0.1-7.9V238.4z M222.1,238.5h3.2
		c2.7,0,4.1-1.5,4.1-3.5c0-2.2-1.1-3.3-3.8-3.3h-3.4v-1.1h3.5c3.9,0,6.2,1.7,6.2,4.4c0,2.2-1.7,4.1-5,4.4l0.1-0.2
		c1.8,0.2,3,1,3.6,3.3l1.3,4.2l-0.8-0.5l2.6,0.3v1c-0.5,0.1-1,0.2-1.8,0.2c-1.6,0-2.3-0.5-2.6-1.6l-1-4.1c-0.5-2.1-1.5-2.4-3.5-2.4
		h-2.4v-1.3H222.1z"/>
</g>
</svg>
