<?xml version="1.0" encoding="utf-8"?>
<!-- Generator: Adobe Illustrator 25.4.1, SVG Export Plug-In . SVG Version: 6.00 Build 0)  -->
<svg version="1.1" id="Calque_1" xmlns="http://www.w3.org/2000/svg" xmlns:xlink="http://www.w3.org/1999/xlink" x="0px" y="0px"
	 viewBox="0 0 239 300" style="enable-background:new 0 0 239 300;" xml:space="preserve">
<style type="text/css">
	.st0{fill:url(#SVGID_1_);}
	.st1{fill:url(#SVGID_00000158725732541451327250000000442485712058097066_);}
	.st2{fill:url(#SVGID_00000032617571220050218110000003551910849811015572_);}
	.st3{fill:#020203;}
	.st4{fill:#4976BA;}
	.st5{fill:#4876BA;}
</style>
<g transform="translate(0.000000,500.000000) scale(0.100000,-0.100000)">
	
		<linearGradient id="SVGID_1_" gradientUnits="userSpaceOnUse" x1="7319.856" y1="54342.543" x2="7378.123" y2="54342.543" gradientTransform="matrix(0.1 0 0 0.1 153 -1476)">
		<stop  offset="0" style="stop-color:#9ACBEF"/>
		<stop  offset="2.056420e-02" style="stop-color:#97C7EC"/>
		<stop  offset="0.2045" style="stop-color:#79AAD9"/>
		<stop  offset="0.3928" style="stop-color:#6194CA"/>
		<stop  offset="0.5853" style="stop-color:#5185BF"/>
		<stop  offset="0.7843" style="stop-color:#477CB8"/>
		<stop  offset="1" style="stop-color:#447AB6"/>
	</linearGradient>
	<path class="st0" d="M1026.5,4094L885,4039.1l71.6-13.3c68.2-11.7,70-11.7,70-78.2c0-53.3,11.7-78.2,56.6-123.1
		c24.8-24.8,57.8-52.5,101.5-56.6c78.9-7.4,135.6,71.6,139.1,76.7c0.8,2.1,1.8,3.8,2.7,5c1.2,1.8,2,2.3,3.3,4.1c0,0,1.4,2,2.7,4.9
		c20.8,47.7,27,100.6,27,100.6c0,50,5,54.9,59.9,66.5c33.3,5,54.9,16.7,46.6,23.3c-20,18.3-253,101.5-277.9,99.9
		C1176.3,4148.9,1104.7,4123.9,1026.5,4094z"/>
	
		<linearGradient id="SVGID_00000005228042826908737410000007686898636443445933_" gradientUnits="userSpaceOnUse" x1="4966.6499" y1="51354.7109" x2="5071.4067" y2="51354.7109" gradientTransform="matrix(0.1 0 0 0.1 153 -1476)">
		<stop  offset="0" style="stop-color:#9ACBEF"/>
		<stop  offset="2.056420e-02" style="stop-color:#97C7EC"/>
		<stop  offset="0.2045" style="stop-color:#79AAD9"/>
		<stop  offset="0.3928" style="stop-color:#6194CA"/>
		<stop  offset="0.5853" style="stop-color:#5185BF"/>
		<stop  offset="0.7843" style="stop-color:#477CB8"/>
		<stop  offset="1" style="stop-color:#447AB6"/>
	</linearGradient>
	<path style="fill:url(#SVGID_00000005228042826908737410000007686898636443445933_);" d="M753.5,3865.9
		c153.2-113.2,327.9-299.6,384.5-409.5c24.9-48.2,51.6-88.2,56.6-88.2s41.6,50,81.5,109.9c81.5,126.5,238,299.6,354.5,392.8
		c93.2,73.3,89.9,76.6-18.3,28.3c-106.5-46.6-282.9-166.4-352.9-239.7c-30-31.7-61.6-58.3-66.5-58.3c-6.6,0-44.9,33.3-88.2,73.3
		c-41.6,41.6-116.5,99.9-164.7,131.5c-86.5,54.9-266.4,144.8-289.6,144.8C643.7,3950.9,690.3,3912.6,753.5,3865.9z"/>
	
		<linearGradient id="SVGID_00000010273722194008812710000003062216874965285036_" gradientUnits="userSpaceOnUse" x1="4093.6848" y1="48776.6172" x2="4219.0601" y2="48776.6172" gradientTransform="matrix(0.1 0 0 0.1 153 -1476)">
		<stop  offset="0" style="stop-color:#9ACBEF"/>
		<stop  offset="2.056420e-02" style="stop-color:#97C7EC"/>
		<stop  offset="0.2045" style="stop-color:#79AAD9"/>
		<stop  offset="0.3928" style="stop-color:#6194CA"/>
		<stop  offset="0.5853" style="stop-color:#5185BF"/>
		<stop  offset="0.7843" style="stop-color:#477CB8"/>
		<stop  offset="1" style="stop-color:#447AB6"/>
	</linearGradient>
	<path style="fill:url(#SVGID_00000010273722194008812710000003062216874965285036_);" d="M568.8,3841
		c30-76.6,63.2-196.4,106.5-389.5l46.6-206.3l56.6-13.3c148.2-30,312.9-139.8,381.1-251.4l28.3-44.9l46.6,66.5
		c58.3,83.2,211.4,188.1,317.9,214.7c44.9,11.7,89.9,23.3,99.9,26.6c10,3.3,23.3,43.3,30,88.2c11.7,91.6,78.2,357.8,116.5,466.1
		c13.3,38.3,21.6,70,15,70c-5,0-59.9-33.3-121.5-74.9c-174.8-116.5-331.2-294.6-426.1-484.4l-79.9-161.4l-20,58.3
		c-64.9,189.8-231.4,396.1-459.4,569.2c-39.9,30-89.9,64.9-111.6,76.6C558.8,3869.2,557.1,3869.2,568.8,3841z"/>
</g>
<path class="st3" d="M135.8,114.5"/>
<g>
	<g>
		<path class="st4" d="M58.3,90.7c-2.6-3.3-5.1-6.6-7.7-10c0.1-0.1,0.3-0.2,0.4-0.3c2.5,2.2,4.6,3.7,6.4,4.7
			c3.3,1.8,5.8,2.1,7.8,0.8c1.4-0.8,2.1-2.1,2.2-4c0.1-1.8-0.4-3.7-1.6-5.8c-0.5-0.9-1.1-1.7-1.9-2.5c-0.8-0.8-1.5-1.4-2.3-1.9
			c-0.8-0.5-1.8-0.8-2.9-1c-1.1-0.2-2.7-0.3-4.8-0.4c-1.9,0-3.3,0-4.4-0.1c-1.1-0.1-2-0.3-2.9-0.5c-2.3-0.7-4.3-2.2-5.9-4.5
			c-1-1.4-1.7-2.9-2.1-4.6c-0.4-1.7-0.4-3.3-0.1-4.8c0.6-2.8,2.1-4.9,4.6-6.2c0.8-0.4,1.6-0.7,2.4-0.9c0.8-0.2,1.9-0.3,3.3-0.4
			c1.1-0.1,1.8-0.1,2.1-0.2c0.4,0,0.7-0.1,0.9-0.2c0.6-0.3,0.8-0.9,0.5-1.9c0.2-0.1,0.4-0.2,0.6-0.3c1.9,3.5,3.8,7,5.6,10.6
			c-0.2,0.1-0.4,0.2-0.6,0.3c-1.3-1.5-2.4-2.6-3.2-3.3c-0.8-0.7-1.6-1.4-2.5-1.9c-1.6-1-3-1.6-4.4-1.7c-1.4-0.2-2.7,0.1-4,0.8
			c-1.9,1-2.9,2.5-3.1,4.5c-0.1,0.8,0,1.6,0.2,2.5c0.2,0.9,0.6,1.7,1.1,2.4c1.9,2.9,5.1,4.1,9.3,4c1.4,0,2.8,0,4.2,0
			c3.2,0,5.8,0.7,7.7,1.8c2.2,1.3,3.9,3.1,5.2,5.5c0.8,1.6,1.4,3.2,1.7,4.9c0.4,2.4,0.3,4.4-0.3,6.1c-0.6,1.8-1.8,3.1-3.4,4.1
			c-1.5,0.9-3.2,1.5-5.2,1.6c-1,0.1-1.6,0.1-1.8,0.2c-0.2,0-0.4,0.1-0.5,0.2c-0.5,0.4-0.6,1.1-0.2,2C58.5,90.5,58.4,90.6,58.3,90.7z
			"/>
		<path class="st4" d="M76.7,38c0.1,0.2,0.1,0.4,0.2,0.6c-1.1,0.3-1.9,0.7-2.5,1.1c-0.6,0.4-1.1,1-1.4,1.6c-0.5,0.9-0.5,2.1-0.2,3.4
			c0.2,1,0.6,2.1,1.1,3.4c2.5,6.7,5,13.5,7.6,20.1c0.6,1.5,1.1,2.6,1.5,3.5c0.4,0.8,0.9,1.5,1.3,1.9c0.6,0.6,1.3,1,2,1.2
			c0.7,0.2,1.5,0.2,2.4,0c0.1,0.2,0.1,0.4,0.2,0.6c-4.3,1.2-8.4,2.7-12.6,4.5c-0.1-0.2-0.2-0.4-0.3-0.6c0.7-0.4,1.2-0.8,1.6-1.2
			c0.3-0.4,0.6-1,0.7-1.6c0.2-0.7,0.1-1.6-0.1-2.5s-0.8-2.3-1.6-4.1c-2.9-6.6-5.7-13.3-8.5-19.9c-0.8-1.9-1.4-3.2-2-4
			s-1.3-1.4-2.1-1.8c-0.7-0.4-1.4-0.5-2.2-0.5c-0.8,0-1.7,0.2-2.7,0.5c-0.1-0.2-0.2-0.4-0.3-0.6C64.6,41.4,70.6,39.4,76.7,38z"/>
		<path class="st4" d="M116.7,32.9c0.1,4.1,0.2,8.1,0.2,12.3c-0.2,0-0.4,0-0.6,0.1c-1.2-4.1-3-7.1-5.1-9c-2.2-1.9-4.9-2.8-7.9-2.5
			c-2.4,0.2-4.3,0.9-5.9,2c-1.5,1.1-2.8,2.8-3.9,5c-2,4.6-2.2,9.5-1,14.9c0.6,2.5,1.5,4.8,2.5,7c1.1,2.1,2.3,4,3.7,5.5
			c2.7,3,5.2,4.3,7.8,4c1-0.1,2-0.5,2.9-1.2s1.6-1.6,2.1-2.6c0.7-1.5,1.1-3.3,1-5.2c-0.1-1.8-0.6-3.2-1.5-3.9
			c-0.9-0.8-2.4-1.1-4.3-0.9c0-0.2,0-0.4-0.1-0.6c5.1-0.5,10.4-0.7,15.6-0.7c0,0.2,0,0.4,0,0.6c-1.4,0.1-2.4,0.4-3,0.7
			c-0.6,0.3-1,0.8-1.3,1.6c-0.3,0.8-0.4,2.5-0.4,4.9c0,0.7,0,1.7,0.1,3.1c0,0.2,0,0.4,0.1,0.6c-0.5-0.2-1-0.4-1.2-0.4
			c-0.3,0-0.7,0.2-1.2,0.7c-1.2,1.2-2.6,2.1-4.1,2.8c-1.5,0.7-3.2,1.2-4.9,1.4c-2.4,0.3-4.7,0.1-6.9-0.7c-2.2-0.7-4.2-2-6-3.7
			c-1.4-1.3-2.6-3-3.8-5c-1.2-2-2.1-4.2-2.8-6.6c-1-3.3-1.3-6.5-1-9.5c0.4-3.1,1.4-5.8,3.2-8c1.5-1.8,3.4-3.3,5.7-4.5
			c2.3-1.2,4.9-1.9,7.6-2.1c1.6-0.2,3.1-0.1,4.5,0c1.4,0.2,2.9,0.5,4.4,1.1c0.6,0.2,1.2,0.4,1.8,0.7c0.4,0.1,0.8,0.2,1.2,0.2
			c0.8,0,1.4-0.7,1.8-1.9C116.2,32.9,116.5,32.9,116.7,32.9z"/>
		<path class="st4" d="M174.8,41.5c-1-0.3-1.9-0.4-2.6-0.4c-0.7,0-1.5,0.2-2.2,0.6c-0.6,0.3-1,0.6-1.4,1c-0.4,0.4-0.8,0.9-1.2,1.6
			c-0.5,0.9-1.1,2-1.6,3.3c-2.9,6.6-5.7,13.4-8.5,20c-0.8,1.8-1.3,3.2-1.5,4.2c-0.2,0.9-0.2,1.8-0.1,2.4c0.3,1.2,1.1,2,2.3,2.6
			c-0.1,0.2-0.2,0.4-0.3,0.6c-4-1.5-8.1-2.7-12.4-3.6c0.1-0.2,0.1-0.4,0.2-0.6c0.8,0.1,1.5,0.1,2,0c0.6-0.1,1.1-0.4,1.7-0.8
			c0.6-0.5,1.2-1.1,1.6-2c0.5-0.9,1.1-2.2,1.7-4c3-8.1,6-16.3,9.1-24.4c-8.8,10-16.5,20.2-22.5,30.9c-0.1,0-0.3,0-0.4-0.1
			c-1-11.6-3.1-23.1-6.5-34.5c-1.1,8.1-2.1,16.4-3,24.5c-0.2,1.9-0.3,3.3-0.2,4.3c0.1,0.9,0.3,1.7,0.6,2.3c0.3,0.6,0.7,1,1.2,1.3
			c0.5,0.3,1.1,0.5,1.9,0.6c0,0.2-0.1,0.4-0.1,0.6c-3.2-0.3-6.3-0.5-9.5-0.6c0-0.2,0-0.4,0-0.6c0.8,0,1.5-0.2,2-0.4
			c0.5-0.2,1-0.6,1.4-1.1c0.5-0.6,0.9-1.3,1.1-2.2c0.3-0.9,0.5-2.3,0.7-4.2c0.7-6.9,1.5-13.8,2.3-20.7c0.1-0.9,0.2-1.7,0.2-2.4
			c0.1-1.4,0-2.4-0.3-3c-0.4-0.9-1-1.6-1.8-2c-0.8-0.5-1.9-0.7-3.3-0.8c0-0.2,0-0.4,0.1-0.6c4.3,0.1,8.6,0.3,13,0.7
			c2.4,10.4,4,20.8,4.6,31.2c5.8-9.2,12.9-18.3,20.9-27.1c3.8,0.9,7.6,2,11.4,3.2C175,41.1,174.9,41.3,174.8,41.5z"/>
		<path class="st4" d="M183,92.2c-3.3-2.9-6.7-5.4-10.5-7.6c0.1-0.2,0.3-0.4,0.4-0.6c1.1,0.5,2,0.7,2.6,0.6c1.2-0.2,2.2-0.8,3-1.9
			c0.5-0.7,1-1.7,1.5-3c0.2-0.4,0.3-0.8,0.5-1.2c0.8-2.3,1.6-4.6,2.4-7c-2.9-1.7-5.8-3.3-8.9-4.7c-1.1,1-2.1,2.1-3.1,3.1
			c-0.5,0.5-0.9,0.9-1.4,1.4c-1.7,1.6-2.8,3-3.4,4.1c-0.4,0.6-0.6,1.3-0.7,1.9c-0.1,0.6-0.1,1.2,0.1,1.7c0.2,0.7,0.7,1.2,1.3,1.7
			c-0.1,0.2-0.2,0.4-0.3,0.6c-2.6-1.3-5.4-2.5-8.2-3.5c0.1-0.2,0.2-0.4,0.3-0.6c0.7,0.2,1.4,0.2,2.1,0c0.7-0.2,1.5-0.7,2.5-1.3
			c0.8-0.5,1.7-1.3,2.7-2.3c1-1,2.4-2.4,4.4-4.3c7.1-7.1,14.9-14,23.3-20.6c0.5,0.2,0.9,0.5,1.4,0.7c-2.6,11-6,21.6-10.2,32
			c-1,2.3-1.6,4-2,5c-0.3,1-0.5,1.9-0.5,2.6c0,0.5,0.1,0.9,0.3,1.3c0.2,0.4,0.6,0.9,1.1,1.6C183.3,91.9,183.2,92.1,183,92.2z
			 M183.3,70.1c1.6-5.1,3.1-10.5,4.3-15.7c-4.4,3.7-8.6,7.4-12.8,11.3C177.8,67.1,180.6,68.5,183.3,70.1z"/>
	</g>
</g>
<rect x="17.9" y="195.9" class="st4" width="47" height="1.8"/>
<rect x="171.6" y="196.8" class="st4" width="47" height="1.8"/>
<g>
	<path class="st5" d="M17.9,213.5v-0.9h6.3v0.9l-2.9,0.3h-0.5L17.9,213.5z M21,226.4v1.2h-3.1v-0.9l2.9-0.3H21z M20,212.6h2.1
		c-0.1,2.3-0.1,4.6-0.1,6.9v1.6c0,1.9,0,4.2,0.1,6.5H20c0.1-2.3,0.1-4.6,0.1-6.9v-1.1C20,217.2,20,214.9,20,212.6z M29.3,223.5
		l-0.2,4.2h-8v-1.1h7.2l-1.2,1.1l0.9-4.2H29.3z"/>
	<path class="st5" d="M30.9,213.5v-0.9H34v1.2h-0.2L30.9,213.5z M34,226.4v1.2h-3.1v-0.9l2.9-0.3H34z M33,219.6c0-2.3,0-4.6-0.1-6.9
		H35c-0.1,2.3-0.1,4.6-0.1,6.9v0.8c0,2.6,0,4.9,0.1,7.2h-2.1c0.1-2.3,0.1-4.6,0.1-6.9V219.6z M40.2,212.6l1,1.1H34v-1.1h8l0.2,4
		h-1.3L40.2,212.6z M39.1,220.5h-5v-1h5V220.5z M42.6,223.7l-0.2,4H34v-1.1h7.6l-1,1.1l0.7-4H42.6z M38.4,219.7l0.3-2.4h1v5.3h-1
		l-0.3-2.5V219.7z"/>
	<path class="st5" d="M43.5,226.8l2.2-0.3h0.4l2.5,0.3v0.9h-5.1V226.8z M50.2,212.5h1.3l5.1,15.2h-2.1L50,214.2h0.5L46,227.7h-1
		L50.2,212.5z M47.6,221.7h6l0.4,1h-6.7L47.6,221.7z M52,226.8l2.8-0.3h0.4l2.8,0.3v0.9h-6V226.8z"/>
	<path class="st5" d="M59.1,213.5v-0.9h3.1v1.2H62L59.1,213.5z M62.4,226.4l2.9,0.3v0.9h-6.2v-0.9l2.9-0.3H62.4z M61.2,219.6
		c0-2.3,0-4.6-0.1-6.9h2.1c-0.1,2.3-0.1,4.5-0.1,7.1v0.7c0,2.5,0,4.8,0.1,7.1h-2.1c0.1-2.3,0.1-4.6,0.1-6.9V219.6z M62.2,219.7H65
		c2.4,0,3.6-1.3,3.6-3.1c0-1.9-1-2.9-3.3-2.9h-3v-1h3.1c3.4,0,5.4,1.5,5.4,3.9c0,1.9-1.5,3.6-4.4,3.9l0.1-0.2
		c1.6,0.2,2.6,0.9,3.2,2.9l1.1,3.7l-0.7-0.4l2.3,0.3v0.9c-0.4,0.1-0.9,0.2-1.6,0.2c-1.4,0-2-0.4-2.3-1.4l-0.9-3.6
		c-0.4-1.8-1.3-2.1-3.1-2.1h-2.1v-1.1H62.2z"/>
	<path class="st5" d="M73.6,226.8l2.3-0.3h0.4l2.6,0.3v0.9h-5.4v-0.9H73.6z M75,213.3l1.4,0.5l-2.7-0.3v-0.9h3.4l9.3,12.9v2.4h-0.7
		L75,213.3z M75.5,212.6l1.1,0.9v14.2h-1.1V212.6z M82.8,212.6h5.4v0.9l-2.2,0.3h-0.4l-2.7-0.3v-0.9H82.8z M85.2,212.6h1.1v15.2
		l-1.1-1.1V212.6z"/>
	<path class="st5" d="M90,213.5v-0.9h6.3v0.9l-2.9,0.3H93L90,213.5z M93.3,226.4l2.9,0.3v0.9h-6.3v-0.9l2.9-0.3H93.3z M92.1,219.6
		c0-2.3,0-4.6-0.1-6.9h2.1c-0.1,2.3-0.1,4.6-0.1,6.9v1.1c0,2.3,0,4.6,0.1,6.9H92c0.1-2.3,0.1-4.6,0.1-6.9V219.6z"/>
	<path class="st5" d="M98.1,226.8l2.3-0.3h0.4l2.6,0.3v0.9H98v-0.9H98.1z M99.5,213.3l1.4,0.5l-2.7-0.3v-0.9h3.4l9.3,12.9v2.4h-0.7
		L99.5,213.3z M100,212.6l1.1,0.9v14.2H100V212.6z M107.5,212.6h5.4v0.9l-2.2,0.3h-0.4l-2.7-0.3v-0.9H107.5z M109.8,212.6h1.1v15.2
		l-1.1-1.1V212.6z"/>
	<path class="st5" d="M126.9,226.7c-1.5,0.8-3.1,1.3-4.9,1.3c-4.5,0-7.5-3.3-7.5-7.8c0-4.5,3.1-7.8,7.6-7.8c1.9,0,3.2,0.3,4.5,1.1
		l0.1,3.2h-1.4l-0.6-3.3l1.4,0.4v1.3c-1.2-1.1-2.4-1.6-3.9-1.6c-3.1,0-5.4,2.4-5.4,6.7c0,4.2,2.1,6.7,5.6,6.7c1.3,0,2.2-0.3,3.5-0.9
		l-1,1v-1.3c0-1.7,0-3.4-0.1-5.1h2.1c0,1.7-0.1,3.4-0.1,5.1v1H126.9z M122.4,221.5v-0.9h5.8v0.9l-2.5,0.2h-0.4L122.4,221.5z"/>
	<path class="st5" d="M145.8,225.4v1.2l-1.4,0.3l0.6-3.3h1.4l-0.1,3.2c-1.4,0.8-2.9,1.1-4.5,1.1c-4.5,0-7.5-3.3-7.5-7.8
		c0-4.5,3.2-7.8,7.5-7.8c1.2,0,2.8,0.2,4.3,1.1l0.1,3.2h-1.4l-0.6-3.3l1.4,0.3v1.4c-1.3-1.2-2.5-1.6-3.6-1.6c-3,0-5.4,2.3-5.4,6.7
		s2.2,6.7,5.3,6.7C143.1,226.9,144.5,226.5,145.8,225.4z"/>
	<path class="st5" d="M148.3,213.5v-0.9h3.1v1.2h-0.2L148.3,213.5z M151.4,226.4v1.2h-3.1v-0.9l2.9-0.3H151.4z M150.4,219.6
		c0-2.3,0-4.6-0.1-6.9h2.1c-0.1,2.3-0.1,4.6-0.1,6.9v0.8c0,2.6,0,4.9,0.1,7.2h-2.1c0.1-2.3,0.1-4.6,0.1-6.9V219.6z M157.6,212.6
		l1,1.1h-7.2v-1.1h8l0.2,4h-1.3L157.6,212.6z M156.5,220.5h-5v-1h5V220.5z M160,223.7l-0.2,4h-8.4v-1.1h7.6l-1,1.1l0.7-4H160z
		 M155.8,219.7l0.3-2.4h1v5.3h-1l-0.3-2.5V219.7z"/>
	<path class="st5" d="M161.7,226.8l2.3-0.3h0.4l2.6,0.3v0.9h-5.4v-0.9H161.7z M163.1,213.3l1.4,0.5l-2.7-0.3v-0.9h3.4l9.3,12.9v2.4
		h-0.7L163.1,213.3z M163.6,212.6l1.1,0.9v14.2h-1.1V212.6z M171.1,212.6h5.4v0.9l-2.2,0.3h-0.6l-2.7-0.3v-0.9H171.1z M173.4,212.6
		h1.1v15.2l-1.1-1.1V212.6z"/>
	<path class="st5" d="M178.7,213.7l1-1.1l-0.7,4h-1.3l0.2-4h12.3l0.2,4h-1.3l-0.7-4l1,1.1H178.7z M184.3,226.4l3.1,0.3v0.9h-6.7
		v-0.9l3.1-0.3H184.3z M183,219.6c0-2.3,0-4.6-0.1-6.9h2.1c-0.1,2.3-0.1,4.6-0.1,6.9v1.1c0,2.3,0,4.6,0.1,6.9h-2.1
		c0.1-2.3,0.1-4.6,0.1-6.9V219.6z"/>
	<path class="st5" d="M191.9,213.5v-0.9h3.1v1.2h-0.2L191.9,213.5z M195,226.4v1.2h-3.1v-0.9l2.9-0.3H195z M194,219.6
		c0-2.3,0-4.6-0.1-6.9h2.1c-0.1,2.3-0.1,4.6-0.1,6.9v0.8c0,2.6,0,4.9,0.1,7.2h-2.1c0.1-2.3,0.1-4.6,0.1-6.9V219.6z M201.2,212.6
		l1,1.1H195v-1.1h8l0.2,4h-1.3L201.2,212.6z M200,220.5h-5v-1h5V220.5z M203.6,223.7l-0.2,4H195v-1.1h7.6l-1,1.1l0.7-4H203.6z
		 M199.3,219.7l0.3-2.4h1v5.3h-1l-0.3-2.5V219.7z"/>
	<path class="st5" d="M205.5,213.5v-0.9h3.1v1.2h-0.2L205.5,213.5z M208.8,226.4l2.9,0.3v0.9h-6.3v-0.9l2.9-0.3H208.8z M207.6,219.6
		c0-2.3,0-4.6-0.1-6.9h2.1c-0.1,2.3-0.1,4.5-0.1,7.1v0.7c0,2.5,0,4.8,0.1,7.1h-2.1c0.1-2.3,0.1-4.6,0.1-6.9V219.6z M208.6,219.7h2.8
		c2.4,0,3.6-1.3,3.6-3.1c0-1.9-1-2.9-3.3-2.9h-3v-1h3.1c3.4,0,5.4,1.5,5.4,3.9c0,1.9-1.5,3.6-4.4,3.9l0.1-0.2
		c1.6,0.2,2.6,0.9,3.2,2.9l1.1,3.7l-0.7-0.4l2.3,0.3v0.9c-0.4,0.1-0.9,0.2-1.6,0.2c-1.4,0-2-0.4-2.3-1.4l-0.9-3.6
		c-0.4-1.8-1.3-2.1-3.1-2.1h-2.1v-1.1H208.6z"/>
</g>
</svg>
