<?xml version="1.0" encoding="utf-8"?>
<!-- Generator: Adobe Illustrator 25.4.1, SVG Export Plug-In . SVG Version: 6.00 Build 0)  -->
<svg version="1.1" id="Calque_1" xmlns="http://www.w3.org/2000/svg" xmlns:xlink="http://www.w3.org/1999/xlink" x="0px" y="0px"
	 viewBox="0 0 1280 1248" style="enable-background:new 0 0 1280 1248;" xml:space="preserve">
<style type="text/css">
	.st0{fill:#FFFFFF;}
</style>
<g transform="translate(0.000000,1248.000000) scale(0.100000,-0.100000)">
	<path class="st0" d="M6020,12469c-41-5-136-16-210-24c-799-89-1572-490-2123-1100c-479-531-777-1187-863-1905c-24-194-24-581,0-770
		c94-766,412-1440,935-1982c580-602,1334-963,2169-1038c170-16,574-7,732,15c638,89,1204,332,1705,731c212,169,475,450,642,684
		c333,469,540,1011,609,1600c21,174,23,531,6,700c-121,1148-770,2126-1778,2679c-334,183-752,322-1129,375
		C6446,12472,6161,12487,6020,12469z"/>
	<path class="st0" d="M8555,5854c-446-338-1055-600-1635-703c-268-48-361-55-700-55c-281,0-347,3-490,22c-675,92-1279,328-1807,706
		l-97,70l-104-18c-156-26-435-99-616-160c-443-150-866-370-1246-649c-331-243-688-597-939-931C429,3482,119,2695,36,1890
		C4,1580-3,1461,3,1335C38,552,229,181,660,57c342-99,638-67,1820,193c513,113,888,182,1225,225c400,51,265,48,2570,53
		c1485,2,2206,0,2330-8c480-29,939-101,1670-261c540-119,935-196,1106-218c90-11,203-26,250-32c199-26,478,19,655,106
		c273,134,433,430,483,895c6,52,15,139,21,192c13,122,13,289,0,415c-5,54-17,169-25,255c-77,804-391,1607-885,2263
		c-237,315-549,630-865,875c-486,376-1077,661-1676,809c-191,47-483,99-602,106l-82,5L8555,5854z"/>
</g>
</svg>
