<?xml version="1.0" encoding="utf-8"?>
<!-- Generator: Adobe Illustrator 25.4.1, SVG Export Plug-In . SVG Version: 6.00 Build 0)  -->
<svg version="1.1" id="Calque_1" xmlns="http://www.w3.org/2000/svg" xmlns:xlink="http://www.w3.org/1999/xlink" x="0px" y="0px"
	 viewBox="0 0 200 200" style="enable-background:new 0 0 200 200;" xml:space="preserve">
<style type="text/css">
	.st0{fill:url(#SVGID_1_);}
	.st1{fill:url(#SVGID_00000135678589595095074910000006756577517575789487_);}
	.st2{fill:url(#SVGID_00000051382637954890634780000009736564248680965769_);}
	.st3{fill:#020203;}
	.st4{fill:#4976BA;}
	.st5{fill:#4876BA;}
</style>
<g transform="translate(0.000000,500.000000) scale(0.100000,-0.100000)">
	<linearGradient id="SVGID_1_" gradientUnits="userSpaceOnUse" x1="702.4362" y1="4273.7881" x2="760.4075" y2="4273.7881">
		<stop  offset="0" style="stop-color:#9ACBEF"/>
		<stop  offset="2.056420e-02" style="stop-color:#97C7EC"/>
		<stop  offset="0.2045" style="stop-color:#79AAD9"/>
		<stop  offset="0.3928" style="stop-color:#6194CA"/>
		<stop  offset="0.5853" style="stop-color:#5185BF"/>
		<stop  offset="0.7843" style="stop-color:#477CB8"/>
		<stop  offset="1" style="stop-color:#447AB6"/>
	</linearGradient>
	<path class="st0" d="M843.2,4409l-140.8-54.6l71.2-13.2c67.9-11.6,69.6-11.6,69.6-77.8c0-53,11.6-77.8,56.3-122.5
		c24.7-24.7,57.5-52.2,101-56.3c78.5-7.4,134.9,71.2,138.4,76.3c0.8,2.1,1.8,3.8,2.7,5c1.2,1.8,2,2.3,3.3,4.1c0,0,1.4,2,2.7,4.9
		c20.7,47.5,26.9,100.1,26.9,100.1c0,49.7,5,54.6,59.6,66.2c33.1,5,54.6,16.6,46.4,23.2c-19.9,18.2-251.7,101-276.5,99.4
		C992.2,4463.6,921,4438.8,843.2,4409z"/>
	
		<linearGradient id="SVGID_00000061457214084522572650000008867359488457805220_" gradientUnits="userSpaceOnUse" x1="468.3128" y1="3976.7712" x2="572.538" y2="3976.7712">
		<stop  offset="0" style="stop-color:#9ACBEF"/>
		<stop  offset="2.056420e-02" style="stop-color:#97C7EC"/>
		<stop  offset="0.2045" style="stop-color:#79AAD9"/>
		<stop  offset="0.3928" style="stop-color:#6194CA"/>
		<stop  offset="0.5853" style="stop-color:#5185BF"/>
		<stop  offset="0.7843" style="stop-color:#477CB8"/>
		<stop  offset="1" style="stop-color:#447AB6"/>
	</linearGradient>
	<path style="fill:url(#SVGID_00000061457214084522572650000008867359488457805220_);" d="M571.6,4182.1
		C724,4069.5,897.8,3884,954.1,3774.7c24.8-48,51.3-87.8,56.3-87.8c5,0,41.4,49.7,81.1,109.3c81.1,125.9,236.8,298.1,352.7,390.8
		c92.7,72.9,89.4,76.2-18.2,28.2c-106-46.4-281.5-165.6-351.1-238.5c-29.8-31.5-61.3-58-66.2-58c-6.6,0-44.7,33.1-87.8,72.9
		c-41.4,41.4-115.9,99.4-163.9,130.8c-86.1,54.6-265,144.1-288.1,144.1C462.3,4266.6,508.7,4228.5,571.6,4182.1z"/>
	
		<linearGradient id="SVGID_00000170242152459577081580000004361060412724768410_" gradientUnits="userSpaceOnUse" x1="381.4164" y1="3720.0942" x2="506.1552" y2="3720.0942">
		<stop  offset="0" style="stop-color:#9ACBEF"/>
		<stop  offset="2.056420e-02" style="stop-color:#97C7EC"/>
		<stop  offset="0.2045" style="stop-color:#79AAD9"/>
		<stop  offset="0.3928" style="stop-color:#6194CA"/>
		<stop  offset="0.5853" style="stop-color:#5185BF"/>
		<stop  offset="0.7843" style="stop-color:#477CB8"/>
		<stop  offset="1" style="stop-color:#447AB6"/>
	</linearGradient>
	<path style="fill:url(#SVGID_00000170242152459577081580000004361060412724768410_);" d="M387.8,4157.3
		c29.8-76.2,62.9-195.4,106-387.5l46.4-205.3l56.3-13.2c147.4-29.8,311.3-139.1,379.2-250.1l28.2-44.7l46.4,66.2
		c58,82.8,210.3,187.1,316.3,213.6c44.7,11.6,89.4,23.2,99.4,26.5c9.9,3.3,23.2,43.1,29.8,87.8c11.6,91.1,77.8,356,115.9,463.7
		c13.2,38.1,21.5,69.6,14.9,69.6c-5,0-59.6-33.1-120.9-74.5c-173.9-115.9-329.5-293.1-423.9-481.9l-79.5-160.6l-19.9,58
		c-64.6,188.8-230.2,394.1-457.1,566.3c-39.7,29.8-89.4,64.6-111,76.2C377.9,4185.4,376.2,4185.4,387.8,4157.3z"/>
</g>
<path class="st3" d="M117.3,82.9"/>
<g>
	<g>
		<path class="st4" d="M40.2,59.2c-2.6-3.3-5.1-6.6-7.7-9.9c0.1-0.1,0.3-0.2,0.4-0.3c2.5,2.2,4.6,3.7,6.4,4.7
			c3.3,1.8,5.8,2.1,7.8,0.8c1.4-0.8,2.1-2.1,2.2-4c0.1-1.8-0.4-3.7-1.6-5.8c-0.5-0.9-1.1-1.7-1.9-2.5c-0.8-0.8-1.5-1.4-2.3-1.9
			c-0.8-0.5-1.8-0.8-2.9-1c-1.1-0.2-2.7-0.3-4.8-0.4c-1.9,0-3.3,0-4.4-0.1c-1.1-0.1-2-0.3-2.9-0.5c-2.3-0.7-4.3-2.2-5.9-4.5
			c-1-1.4-1.7-2.9-2.1-4.6c-0.4-1.7-0.4-3.3-0.1-4.8c0.6-2.8,2.1-4.9,4.6-6.2c0.8-0.4,1.6-0.7,2.4-0.9c0.8-0.2,1.9-0.3,3.3-0.4
			c1.1-0.1,1.8-0.1,2.1-0.2c0.4,0,0.7-0.1,0.9-0.2c0.6-0.3,0.8-0.9,0.5-1.9c0.2-0.1,0.4-0.2,0.6-0.3c1.9,3.5,3.8,7,5.6,10.5
			c-0.2,0.1-0.4,0.2-0.6,0.3c-1.3-1.5-2.4-2.6-3.2-3.3c-0.8-0.7-1.6-1.4-2.5-1.9c-1.6-1-3-1.6-4.4-1.7c-1.4-0.2-2.7,0.1-4,0.8
			c-1.9,1-2.9,2.5-3.1,4.5c-0.1,0.8,0,1.6,0.2,2.5c0.2,0.9,0.6,1.7,1.1,2.4c1.9,2.9,5.1,4.1,9.3,4c1.4,0,2.8,0,4.2,0
			c3.2,0,5.8,0.7,7.7,1.8c2.2,1.3,3.9,3.1,5.2,5.5c0.8,1.6,1.4,3.2,1.7,4.9c0.4,2.4,0.3,4.4-0.3,6.1c-0.6,1.8-1.8,3.1-3.4,4.1
			c-1.5,0.9-3.2,1.5-5.2,1.6c-1,0.1-1.6,0.1-1.8,0.2c-0.2,0-0.4,0.1-0.5,0.2c-0.5,0.4-0.6,1.1-0.2,2C40.4,59,40.3,59.1,40.2,59.2z"
			/>
		<path class="st4" d="M58.5,6.8c0.1,0.2,0.1,0.4,0.2,0.6c-1.1,0.3-1.9,0.7-2.5,1.1c-0.6,0.4-1.1,1-1.4,1.6
			c-0.5,0.9-0.5,2.1-0.2,3.4c0.2,1,0.6,2.1,1.1,3.4c2.5,6.7,5,13.4,7.6,20c0.6,1.5,1.1,2.6,1.5,3.5c0.4,0.8,0.9,1.5,1.3,1.9
			c0.6,0.6,1.3,1,2,1.2c0.7,0.2,1.5,0.2,2.4,0c0.1,0.2,0.1,0.4,0.2,0.6c-4.3,1.2-8.4,2.7-12.5,4.5c-0.1-0.2-0.2-0.4-0.3-0.6
			c0.7-0.4,1.2-0.8,1.6-1.2c0.3-0.4,0.6-1,0.7-1.6c0.2-0.7,0.1-1.6-0.1-2.5c-0.2-0.9-0.8-2.3-1.6-4.1C55.6,32,52.8,25.4,50,18.8
			c-0.8-1.9-1.4-3.2-2-4c-0.6-0.8-1.3-1.4-2.1-1.8c-0.7-0.4-1.4-0.5-2.2-0.5c-0.8,0-1.7,0.2-2.7,0.5c-0.1-0.2-0.2-0.4-0.3-0.6
			C46.5,10.1,52.4,8.2,58.5,6.8z"/>
		<path class="st4" d="M98.3,1.7c0.1,4.1,0.2,8.1,0.2,12.2c-0.2,0-0.4,0-0.6,0.1c-1.2-4.1-3-7.1-5.1-9c-2.2-1.9-4.9-2.8-7.9-2.5
			c-2.4,0.2-4.3,0.9-5.9,2c-1.5,1.1-2.8,2.8-3.9,5c-2,4.6-2.2,9.5-1,14.8c0.6,2.5,1.5,4.8,2.5,7c1.1,2.1,2.3,4,3.7,5.5
			c2.7,3,5.2,4.3,7.8,4c1-0.1,2-0.5,2.9-1.2c0.9-0.7,1.6-1.6,2.1-2.6c0.7-1.5,1.1-3.3,1-5.2c-0.1-1.8-0.6-3.2-1.5-3.9
			c-0.9-0.8-2.4-1.1-4.3-0.9c0-0.2,0-0.4-0.1-0.6c5.1-0.5,10.3-0.7,15.5-0.7c0,0.2,0,0.4,0,0.6c-1.4,0.1-2.4,0.4-3,0.7
			c-0.6,0.3-1,0.8-1.3,1.6c-0.3,0.8-0.4,2.5-0.4,4.9c0,0.7,0,1.7,0.1,3.1c0,0.2,0,0.4,0.1,0.6c-0.5-0.2-1-0.4-1.2-0.4
			c-0.3,0-0.7,0.2-1.2,0.7c-1.2,1.2-2.6,2.1-4.1,2.8c-1.5,0.7-3.2,1.2-4.9,1.4c-2.4,0.3-4.7,0.1-6.9-0.7c-2.2-0.7-4.2-2-6-3.7
			c-1.4-1.3-2.6-3-3.8-5c-1.2-2-2.1-4.2-2.8-6.6c-1-3.3-1.3-6.5-1-9.5c0.4-3.1,1.4-5.8,3.2-8c1.5-1.8,3.4-3.3,5.7-4.5
			c2.3-1.2,4.9-1.9,7.6-2.1c1.6-0.2,3.1-0.1,4.5,0c1.4,0.2,2.9,0.5,4.4,1.1c0.6,0.2,1.2,0.4,1.8,0.7c0.4,0.1,0.8,0.2,1.2,0.2
			c0.8,0,1.4-0.7,1.8-1.9C97.8,1.7,98.1,1.7,98.3,1.7z"/>
		<path class="st4" d="M156.1,10.2c-1-0.3-1.9-0.4-2.6-0.4c-0.7,0-1.5,0.2-2.2,0.6c-0.6,0.3-1,0.6-1.4,1c-0.4,0.4-0.8,0.9-1.2,1.6
			c-0.5,0.9-1.1,2-1.6,3.3c-2.9,6.6-5.7,13.3-8.5,19.9c-0.8,1.8-1.3,3.2-1.5,4.2c-0.2,0.9-0.2,1.8-0.1,2.4c0.3,1.2,1.1,2,2.3,2.6
			c-0.1,0.2-0.2,0.4-0.3,0.6c-4-1.5-8.1-2.7-12.3-3.6c0.1-0.2,0.1-0.4,0.2-0.6c0.8,0.1,1.5,0.1,2,0c0.6-0.1,1.1-0.4,1.7-0.8
			c0.6-0.5,1.2-1.1,1.6-2c0.5-0.9,1.1-2.2,1.7-4c3-8.1,6-16.2,9.1-24.3c-8.8,9.9-16.4,20.1-22.4,30.7c-0.1,0-0.3,0-0.4-0.1
			c-1-11.5-3.1-23-6.5-34.3c-1.1,8.1-2.1,16.3-3,24.4c-0.2,1.9-0.3,3.3-0.2,4.3c0.1,0.9,0.3,1.7,0.6,2.3c0.3,0.6,0.7,1,1.2,1.3
			c0.5,0.3,1.1,0.5,1.9,0.6c0,0.2-0.1,0.4-0.1,0.6c-3.2-0.3-6.3-0.5-9.5-0.6c0-0.2,0-0.4,0-0.6c0.8,0,1.5-0.2,2-0.4
			c0.5-0.2,1-0.6,1.4-1.1c0.5-0.6,0.9-1.3,1.1-2.2c0.3-0.9,0.5-2.3,0.7-4.2c0.7-6.9,1.5-13.7,2.3-20.6c0.1-0.9,0.2-1.7,0.2-2.4
			c0.1-1.4,0-2.4-0.3-3c-0.4-0.9-1-1.6-1.8-2c-0.8-0.5-1.9-0.7-3.3-0.8c0-0.2,0-0.4,0.1-0.6c4.3,0.1,8.6,0.3,12.9,0.7
			c2.4,10.3,4,20.7,4.6,31c5.8-9.2,12.8-18.2,20.8-27c3.8,0.9,7.6,2,11.3,3.2C156.3,9.8,156.2,10,156.1,10.2z"/>
		<path class="st4" d="M164.3,60.7c-3.3-2.9-6.7-5.4-10.4-7.6c0.1-0.2,0.3-0.4,0.4-0.6c1.1,0.5,2,0.7,2.6,0.6c1.2-0.2,2.2-0.8,3-1.9
			c0.5-0.7,1-1.7,1.5-3c0.2-0.4,0.3-0.8,0.5-1.2c0.8-2.3,1.6-4.6,2.4-7c-2.9-1.7-5.8-3.3-8.9-4.7c-1.1,1-2.1,2.1-3.1,3.1
			c-0.5,0.5-0.9,0.9-1.4,1.4c-1.7,1.6-2.8,3-3.4,4.1c-0.4,0.6-0.6,1.3-0.7,1.9c-0.1,0.6-0.1,1.2,0.1,1.7c0.2,0.7,0.7,1.2,1.3,1.7
			c-0.1,0.2-0.2,0.4-0.3,0.6c-2.6-1.3-5.4-2.5-8.2-3.5c0.1-0.2,0.2-0.4,0.3-0.6c0.7,0.2,1.4,0.2,2.1,0c0.7-0.2,1.5-0.7,2.5-1.3
			c0.8-0.5,1.7-1.3,2.7-2.3c1-1,2.4-2.4,4.4-4.3c7.1-7.1,14.8-13.9,23.2-20.5c0.5,0.2,0.9,0.5,1.4,0.7c-2.6,10.9-6,21.5-10.1,31.8
			c-1,2.3-1.6,4-2,5c-0.3,1-0.5,1.9-0.5,2.6c0,0.5,0.1,0.9,0.3,1.3c0.2,0.4,0.6,0.9,1.1,1.6C164.6,60.4,164.5,60.6,164.3,60.7z
			 M164.6,38.7c1.6-5.1,3.1-10.4,4.3-15.6c-4.4,3.7-8.6,7.4-12.7,11.2C159.1,35.7,161.9,37.1,164.6,38.7z"/>
	</g>
</g>
<rect x="0" y="163.9" class="st4" width="46.8" height="1.8"/>
<rect x="152.9" y="164.8" class="st4" width="46.8" height="1.8"/>
<g>
	<path class="st5" d="M0,181.4v-0.9h6.3v0.9l-2.9,0.3H2.9L0,181.4z M3.1,194.2v1.2H0v-0.9l2.9-0.3H3.1z M2.1,180.5h2.1
		c-0.1,2.3-0.1,4.6-0.1,6.9v1.6c0,1.9,0,4.2,0.1,6.5H2.1c0.1-2.3,0.1-4.6,0.1-6.9v-1.1C2.1,185.1,2.1,182.8,2.1,180.5z M11.3,191.3
		l-0.2,4.2h-8v-1.1h7.2l-1.2,1.1l0.9-4.2H11.3z"/>
	<path class="st5" d="M12.9,181.4v-0.9H16v1.2h-0.2L12.9,181.4z M16,194.2v1.2h-3.1v-0.9l2.9-0.3H16z M15,187.4c0-2.3,0-4.6-0.1-6.9
		h2.1c-0.1,2.3-0.1,4.6-0.1,6.9v0.8c0,2.6,0,4.9,0.1,7.2h-2.1c0.1-2.3,0.1-4.6,0.1-6.9V187.4z M22.2,180.5l1,1.1H16v-1.1h8l0.2,4
		h-1.3L22.2,180.5z M21.1,188.3h-5v-1h5V188.3z M24.6,191.5l-0.2,4H16v-1.1h7.6l-1,1.1l0.7-4H24.6z M20.4,187.5l0.3-2.4h1v5.3h-1
		l-0.3-2.5V187.5z"/>
	<path class="st5" d="M25.5,194.6l2.2-0.3h0.4l2.5,0.3v0.9h-5.1V194.6z M32.1,180.4h1.3l5.1,15.1h-2.1l-4.5-13.4h0.5L28,195.5h-1
		L32.1,180.4z M29.5,189.5h6l0.4,1h-6.7L29.5,189.5z M33.9,194.6l2.8-0.3h0.4l2.8,0.3v0.9h-6V194.6z"/>
	<path class="st5" d="M41,181.4v-0.9h3.1v1.2h-0.2L41,181.4z M44.3,194.2l2.9,0.3v0.9H41v-0.9l2.9-0.3H44.3z M43.1,187.4
		c0-2.3,0-4.6-0.1-6.9h2.1c-0.1,2.3-0.1,4.5-0.1,7.1v0.7c0,2.5,0,4.8,0.1,7.1H43c0.1-2.3,0.1-4.6,0.1-6.9V187.4z M44.1,187.5h2.8
		c2.4,0,3.6-1.3,3.6-3.1c0-1.9-1-2.9-3.3-2.9h-3v-1h3.1c3.4,0,5.4,1.5,5.4,3.9c0,1.9-1.5,3.6-4.4,3.9l0.1-0.2
		c1.6,0.2,2.6,0.9,3.2,2.9l1.1,3.7l-0.7-0.4l2.3,0.3v0.9c-0.4,0.1-0.9,0.2-1.6,0.2c-1.4,0-2-0.4-2.3-1.4l-0.9-3.6
		c-0.4-1.8-1.3-2.1-3.1-2.1h-2.1V187.5z"/>
	<path class="st5" d="M55.4,194.6l2.3-0.3h0.4l2.6,0.3v0.9h-5.4V194.6z M56.8,181.2l1.4,0.5l-2.7-0.3v-0.9h3.4l9.3,12.8v2.4h-0.7
		L56.8,181.2z M57.3,180.5l1.1,0.9v14.1h-1.1V180.5z M64.6,180.5H70v0.9l-2.2,0.3h-0.4l-2.7-0.3V180.5z M67,180.5h1.1v15.1l-1.1-1.1
		V180.5z"/>
	<path class="st5" d="M71.7,181.4v-0.9h6.3v0.9l-2.9,0.3h-0.4L71.7,181.4z M75,194.2l2.9,0.3v0.9h-6.3v-0.9l2.9-0.3H75z M73.8,187.4
		c0-2.3,0-4.6-0.1-6.9h2.1c-0.1,2.3-0.1,4.6-0.1,6.9v1.1c0,2.3,0,4.6,0.1,6.9h-2.1c0.1-2.3,0.1-4.6,0.1-6.9V187.4z"/>
	<path class="st5" d="M79.8,194.6l2.3-0.3h0.4l2.6,0.3v0.9h-5.4V194.6z M81.2,181.2l1.4,0.5l-2.7-0.3v-0.9h3.4l9.3,12.8v2.4h-0.7
		L81.2,181.2z M81.7,180.5l1.1,0.9v14.1h-1.1V180.5z M89.1,180.5h5.4v0.9l-2.2,0.3h-0.4l-2.7-0.3V180.5z M91.4,180.5h1.1v15.1
		l-1.1-1.1V180.5z"/>
	<path class="st5" d="M108.4,194.5c-1.5,0.8-3.1,1.3-4.9,1.3c-4.5,0-7.5-3.3-7.5-7.8c0-4.5,3.1-7.8,7.6-7.8c1.9,0,3.2,0.3,4.5,1.1
		l0.1,3.2h-1.4l-0.6-3.3l1.4,0.4v1.3c-1.2-1.1-2.4-1.6-3.9-1.6c-3.1,0-5.4,2.4-5.4,6.7c0,4.2,2.1,6.7,5.6,6.7c1.3,0,2.2-0.3,3.5-0.9
		l-1,1v-1.3c0-1.7,0-3.4-0.1-5.1h2.1c0,1.7-0.1,3.4-0.1,5.1V194.5z M104,189.3v-0.9h5.8v0.9l-2.5,0.2h-0.4L104,189.3z"/>
	<path class="st5" d="M127.3,193.2v1.2l-1.4,0.3l0.6-3.3h1.4l-0.1,3.2c-1.4,0.8-2.9,1.1-4.5,1.1c-4.5,0-7.5-3.3-7.5-7.8
		c0-4.5,3.2-7.8,7.5-7.8c1.2,0,2.8,0.2,4.3,1.1l0.1,3.2h-1.4l-0.6-3.3l1.4,0.3v1.4c-1.3-1.2-2.5-1.6-3.6-1.6c-3,0-5.4,2.3-5.4,6.7
		c0,4.4,2.2,6.7,5.3,6.7C124.6,194.7,126,194.3,127.3,193.2z"/>
	<path class="st5" d="M129.7,181.4v-0.9h3.1v1.2h-0.2L129.7,181.4z M132.8,194.2v1.2h-3.1v-0.9l2.9-0.3H132.8z M131.8,187.4
		c0-2.3,0-4.6-0.1-6.9h2.1c-0.1,2.3-0.1,4.6-0.1,6.9v0.8c0,2.6,0,4.9,0.1,7.2h-2.1c0.1-2.3,0.1-4.6,0.1-6.9V187.4z M139,180.5l1,1.1
		h-7.2v-1.1h8l0.2,4h-1.3L139,180.5z M137.9,188.3h-5v-1h5V188.3z M141.4,191.5l-0.2,4h-8.4v-1.1h7.6l-1,1.1l0.7-4H141.4z
		 M137.2,187.5l0.3-2.4h1v5.3h-1l-0.3-2.5V187.5z"/>
	<path class="st5" d="M143.1,194.6l2.3-0.3h0.4l2.6,0.3v0.9h-5.4V194.6z M144.5,181.2l1.4,0.5l-2.7-0.3v-0.9h3.4l9.3,12.8v2.4h-0.7
		L144.5,181.2z M145,180.5l1.1,0.9v14.1H145V180.5z M152.4,180.5h5.4v0.9l-2.2,0.3H155l-2.7-0.3V180.5z M154.7,180.5h1.1v15.1
		l-1.1-1.1V180.5z"/>
	<path class="st5" d="M160,181.6l1-1.1l-0.7,4h-1.3l0.2-4h12.2l0.2,4h-1.3l-0.7-4l1,1.1H160z M165.6,194.2l3.1,0.3v0.9H162v-0.9
		l3.1-0.3H165.6z M164.3,187.4c0-2.3,0-4.6-0.1-6.9h2.1c-0.1,2.3-0.1,4.6-0.1,6.9v1.1c0,2.3,0,4.6,0.1,6.9h-2.1
		c0.1-2.3,0.1-4.6,0.1-6.9V187.4z"/>
	<path class="st5" d="M173.1,181.4v-0.9h3.1v1.2H176L173.1,181.4z M176.2,194.2v1.2h-3.1v-0.9l2.9-0.3H176.2z M175.2,187.4
		c0-2.3,0-4.6-0.1-6.9h2.1c-0.1,2.3-0.1,4.6-0.1,6.9v0.8c0,2.6,0,4.9,0.1,7.2h-2.1c0.1-2.3,0.1-4.6,0.1-6.9V187.4z M182.4,180.5
		l1,1.1h-7.2v-1.1h8l0.2,4h-1.3L182.4,180.5z M181.2,188.3h-5v-1h5V188.3z M184.8,191.5l-0.2,4h-8.4v-1.1h7.6l-1,1.1l0.7-4H184.8z
		 M180.5,187.5l0.3-2.4h1v5.3h-1l-0.3-2.5V187.5z"/>
	<path class="st5" d="M186.6,181.4v-0.9h3.1v1.2h-0.2L186.6,181.4z M189.9,194.2l2.9,0.3v0.9h-6.3v-0.9l2.9-0.3H189.9z M188.7,187.4
		c0-2.3,0-4.6-0.1-6.9h2.1c-0.1,2.3-0.1,4.5-0.1,7.1v0.7c0,2.5,0,4.8,0.1,7.1h-2.1c0.1-2.3,0.1-4.6,0.1-6.9V187.4z M189.7,187.5h2.8
		c2.4,0,3.6-1.3,3.6-3.1c0-1.9-1-2.9-3.3-2.9h-3v-1h3.1c3.4,0,5.4,1.5,5.4,3.9c0,1.9-1.5,3.6-4.4,3.9l0.1-0.2
		c1.6,0.2,2.6,0.9,3.2,2.9l1.1,3.7l-0.7-0.4l2.3,0.3v0.9c-0.4,0.1-0.9,0.2-1.6,0.2c-1.4,0-2-0.4-2.3-1.4l-0.9-3.6
		c-0.4-1.8-1.3-2.1-3.1-2.1h-2.1V187.5z"/>
</g>
</svg>
